<?xml version="1.0" standalone="no"?>
<!DOCTYPE svg PUBLIC "-//W3C//DTD SVG 1.1//EN" "http://www.w3.org/Graphics/SVG/1.1/DTD/svg11.dtd" >
<svg xmlns="http://www.w3.org/2000/svg">
<metadata>Generated by IcoMoon</metadata>
<defs>
<font id="icomoon" horiz-adv-x="1024">
<font-face units-per-em="1024" ascent="960" descent="-64" />
<missing-glyph horiz-adv-x="1024" />
<glyph unicode="&#x20;" horiz-adv-x="512" d="" />
<glyph unicode="&#xe900;" glyph-name="arrow-down" d="M512 234.667c-10.923 0-21.845 4.181-30.165 12.501l-298.667 298.667c-16.683 16.683-16.683 43.648 0 60.331s43.648 16.683 60.331 0l268.501-268.501 268.501 268.501c16.683 16.683 43.648 16.683 60.331 0s16.683-43.648 0-60.331l-298.667-298.667c-8.32-8.32-19.243-12.501-30.165-12.501z" />
<glyph unicode="&#xe901;" glyph-name="arrow-left" d="M639.573 106.667c-10.923 0-21.845 4.181-30.165 12.501l-298.667 298.667c-16.683 16.683-16.683 43.648 0 60.331l298.667 298.667c16.683 16.683 43.648 16.683 60.331 0s16.683-43.648 0-60.331l-268.501-268.501 268.501-268.501c16.683-16.683 16.683-43.648 0-60.331-8.32-8.32-19.243-12.501-30.165-12.501z" />
<glyph unicode="&#xe902;" glyph-name="arrow-right" d="M383.573 106.667c-10.923 0-21.845 4.181-30.165 12.501-16.683 16.683-16.683 43.648 0 60.331l268.501 268.501-268.501 268.501c-16.683 16.683-16.683 43.648 0 60.331s43.648 16.683 60.331 0l298.667-298.667c16.683-16.683 16.683-43.648 0-60.331l-298.667-298.667c-8.32-8.32-19.243-12.501-30.165-12.501z" />
<glyph unicode="&#xe903;" glyph-name="arrow-up" d="M810.667 234.667c-10.923 0-21.845 4.181-30.165 12.501l-268.501 268.501-268.501-268.501c-16.683-16.683-43.648-16.683-60.331 0s-16.683 43.648 0 60.331l298.667 298.667c16.683 16.683 43.648 16.683 60.331 0l298.667-298.667c16.683-16.683 16.683-43.648 0-60.331-8.32-8.32-19.243-12.501-30.165-12.501z" />
<glyph unicode="&#xe904;" glyph-name="bin" d="M631.168 21.376h-239.147c-52.779 0-81.877 0-109.227 13.952-24.192 12.331-43.52 31.659-55.936 55.893-13.952 27.435-13.952 56.533-13.952 109.355v460.8h-42.667c-23.595 0-42.667 19.072-42.667 42.667s19.072 42.667 42.667 42.667h128.555c0.896 19.627 3.157 34.475 9.259 48.981 13.056 31.573 37.675 56.149 69.205 69.248 23.509 9.771 47.701 9.771 91.648 9.771h85.333c43.947 0 68.181 0 91.648-9.771 31.531-13.056 56.149-37.675 69.248-69.291 6.059-14.507 8.32-29.355 9.216-48.939h128.555c23.595 0 42.667-19.072 42.667-42.667s-19.072-42.667-42.667-42.667h-42.667v-460.928c0-52.736 0-81.835-13.909-109.227-12.416-24.235-31.787-43.563-55.979-55.936-27.349-13.952-56.363-13.952-109.184-13.952zM298.24 661.376v-460.8c0-36.992 0-61.44 4.651-70.571 4.096-8.064 10.581-14.549 18.645-18.688 9.088-4.608 33.493-4.608 70.443-4.608h239.147c36.907 0 61.355 0 70.4 4.608 8.064 4.139 14.592 10.624 18.688 18.688 4.608 9.088 4.608 33.451 4.608 70.4v460.971h-426.581zM384.213 746.709h254.763c-0.469 7.509-1.237 13.013-2.603 16.256-4.352 10.411-12.8 18.859-23.168 23.168-7.851 3.243-28.16 3.243-58.965 3.243h-85.333c-30.805 0-51.157 0-59.008-3.243-10.496-4.395-18.688-12.587-23.083-23.125-1.365-3.285-2.176-8.747-2.645-16.299zM596.907 192.043c-23.595 0-42.667 19.072-42.667 42.667v298.667c0 23.595 19.072 42.667 42.667 42.667s42.667-19.072 42.667-42.667v-298.667c0-23.595-19.072-42.667-42.667-42.667zM426.24 192.043c-23.595 0-42.667 19.072-42.667 42.667v298.667c0 23.595 19.072 42.667 42.667 42.667s42.667-19.072 42.667-42.667v-298.667c0-23.595-19.072-42.667-42.667-42.667z" />
<glyph unicode="&#xe905;" glyph-name="bulb" d="M640 21.333h-256c-23.552 0-42.667 19.115-42.667 42.667s19.115 42.667 42.667 42.667h256c23.552 0 42.667-19.115 42.667-42.667s-19.115-42.667-42.667-42.667zM597.333 149.333h-170.667c-47.061 0-85.333 38.272-85.333 85.333 0 14.635 0.043 21.931-0.256 26.752l-0.939 17.536c-0.299 6.059-0.299 9.813-0.853 12.885-0.853 1.579-2.901 4.693-5.973 9.899l-8.832 15.189c-3.157 5.291-21.632 33.365-57.387 87.893l-4.864 7.424c-32 48.64-48.896 105.259-48.896 163.755 0 164.693 133.973 298.667 298.667 298.667s298.667-133.973 298.667-298.667c0-58.453-16.896-115.072-48.853-163.755l-7.509-11.435c-34.048-51.883-51.755-78.763-54.955-84.139l-8.661-14.891c-3.072-5.248-5.163-8.363-6.357-11.264-0.171-1.792-0.171-5.504-0.469-11.563l-0.939-17.579c-0.299-4.821-0.256-12.16-0.256-26.752 0-47.061-38.272-85.333-85.333-85.333zM512 789.333c-117.632 0-213.333-95.701-213.333-213.333 0-41.771 12.075-82.176 34.859-116.907l4.907-7.467c45.141-68.821 57.088-87.040 60.16-92.373l8.277-14.251c14.976-25.429 17.024-32.384 18.517-61.824l0.896-16.427c0.341-5.76 0.427-14.549 0.427-32.085h170.667c0 17.536 0.043 26.368 0.427 32.128l0.896 16.469c1.451 29.397 3.541 36.352 18.517 61.824l8.235 14.165c3.029 5.291 14.421 22.699 57.6 88.448l7.509 11.435c22.827 34.731 34.859 75.136 34.859 116.907 0 117.632-95.701 213.333-213.333 213.333z" />
<glyph unicode="&#xe906;" glyph-name="close" d="M682.667 234.667c-10.923 0-21.845 4.181-30.165 12.501l-140.501 140.501-140.501-140.501c-16.683-16.683-43.648-16.683-60.331 0s-16.683 43.648 0 60.331l140.501 140.501-140.501 140.501c-16.683 16.683-16.683 43.648 0 60.331s43.648 16.683 60.331 0l140.501-140.501 140.501 140.501c16.683 16.683 43.648 16.683 60.331 0s16.683-43.648 0-60.331l-140.501-140.501 140.501-140.501c16.683-16.683 16.683-43.648 0-60.331-8.32-8.32-19.243-12.501-30.165-12.501z" />
<glyph unicode="&#xe907;" glyph-name="content" d="M716.501 64h-409.856c-52.779 0-81.877 0-109.227 13.952-24.149 12.288-43.52 31.616-55.936 55.893-13.952 27.435-13.952 56.533-13.952 109.312v409.643c0 52.821 0 81.92 13.909 109.312 12.459 24.32 31.787 43.648 55.979 55.979 27.392 13.952 56.491 13.952 109.312 13.952h119.467c23.595 0 42.667-19.115 42.667-42.667s-19.072-42.667-42.667-42.667h-119.467c-36.992 0-61.44 0-70.571-4.651-8.064-4.096-14.549-10.581-18.688-18.688-4.608-9.045-4.608-33.536-4.608-70.528v-409.6c0-36.992 0-61.44 4.651-70.571 4.139-8.064 10.581-14.549 18.645-18.645 9.088-4.651 33.493-4.651 70.443-4.651h409.813c36.907 0 61.355 0 70.4 4.608 8.064 4.139 14.549 10.624 18.688 18.731 4.608 9.045 4.608 33.451 4.608 70.357v119.595c0 23.552 19.072 42.667 42.667 42.667s42.667-19.115 42.667-42.667v-119.595c0-52.736 0-81.792-13.909-109.141-12.459-24.32-31.829-43.648-55.979-55.979-27.349-13.952-56.363-13.952-109.184-13.952zM554.24 320h-128c-23.595 0-42.667 19.115-42.667 42.667v128c0 11.307 4.48 22.187 12.501 30.165l384 384c16.683 16.683 43.648 16.683 60.331 0l128-128c16.683-16.683 16.683-43.648 0-60.331l-384-384c-8.021-8.021-18.816-12.501-30.165-12.501zM468.907 405.333h67.669l213.333 213.333-67.669 67.669-213.333-213.333v-67.669zM742.571 746.667l67.669-67.669 67.669 67.669-67.669 67.669-67.669-67.669z" />
<glyph unicode="&#xe908;" glyph-name="dark-mode" d="M512 21.333c-235.264 0-426.667 191.403-426.667 426.667 0 189.355 121.685 353.493 302.763 408.363 15.147 4.565 31.403 0.469 42.539-10.667s15.232-27.52 10.667-42.581c-9.728-31.957-14.635-65.323-14.635-99.157 0-188.203 153.131-341.333 341.333-341.333 33.92 0 67.285 4.907 99.157 14.592 15.019 4.565 31.403 0.469 42.539-10.667s15.232-27.477 10.667-42.539c-54.869-181.077-219.008-302.72-408.363-302.72zM343.253 744.619c-104.363-59.904-172.587-173.227-172.587-296.661 0-188.203 153.131-341.333 341.333-341.333 123.477 0 236.757 68.224 296.661 172.544-13.44-1.237-27.051-1.877-40.661-1.877-235.264 0-426.667 191.403-426.667 426.667 0 13.611 0.64 27.179 1.92 40.661z" />
<glyph unicode="&#xe909;" glyph-name="design" d="M757.589 2.688c-10.667 0-21.419 2.731-31.317 8.235l-214.613 120.192-214.656-120.149c-22.016-12.416-48.427-10.795-68.864 4.053s-30.080 39.467-25.173 64.213l47.915 241.365-180.565 166.997s0 0-0.085 0.043c-18.517 17.152-25.131 42.752-17.28 66.773 7.808 23.979 28.245 40.747 53.291 43.733l244.309 28.971 103.040 223.403c10.581 22.955 32.896 37.205 58.112 37.205s47.531-14.251 58.112-37.205l103.040-223.403 244.309-28.971c25.045-2.987 45.44-19.755 53.291-43.776 7.808-24.021 1.109-49.621-17.365-66.731l-180.608-167.083 47.915-241.28c4.907-24.789-4.693-49.408-25.131-64.256-11.307-8.192-24.363-12.373-37.589-12.373zM511.659 219.648c10.709 0 21.419-2.688 31.147-8.149l184.789-103.467-41.259 207.659c-4.395 21.632 3.029 44.459 19.285 59.477l155.435 143.744-210.261 24.917c-21.973 2.603-41.387 16.725-50.603 36.864l-88.619 192.128-88.661-192.256c-9.131-20.011-28.544-34.133-50.603-36.736l-210.261-24.917 155.477-143.744c16.256-15.104 23.595-37.931 19.243-59.563l-41.216-207.573 184.747 103.424c9.771 5.461 20.523 8.192 31.275 8.192zM259.541 312.576v0zM345.472 616.277s0-0.085 0-0.128v0.128zM677.76 616.405v-0.085s0 0.043 0 0.085z" />
<glyph unicode="&#xe90a;" glyph-name="double-arrow-down" d="M512 192c-10.923 0-21.845 4.181-30.165 12.501l-170.667 170.667c-16.683 16.683-16.683 43.648 0 60.331s43.648 16.683 60.331 0l140.501-140.501 140.501 140.501c16.683 16.683 43.648 16.683 60.331 0s16.683-43.648 0-60.331l-170.667-170.667c-8.32-8.32-19.243-12.501-30.165-12.501zM512 448c-10.923 0-21.845 4.181-30.165 12.501l-170.667 170.667c-16.683 16.683-16.683 43.648 0 60.331s43.648 16.683 60.331 0l140.501-140.501 140.501 140.501c16.683 16.683 43.648 16.683 60.331 0s16.683-43.648 0-60.331l-170.667-170.667c-8.32-8.32-19.243-12.501-30.165-12.501z" />
<glyph unicode="&#xe90b;" glyph-name="double-arrow-left" d="M725.333 234.667c-10.923 0-21.845 4.181-30.165 12.501l-170.667 170.667c-16.683 16.683-16.683 43.648 0 60.331l170.667 170.667c16.683 16.683 43.648 16.683 60.331 0s16.683-43.648 0-60.331l-140.501-140.501 140.501-140.501c16.683-16.683 16.683-43.648 0-60.331-8.32-8.32-19.243-12.501-30.165-12.501zM469.333 234.667c-10.923 0-21.845 4.181-30.165 12.501l-170.667 170.667c-16.683 16.683-16.683 43.648 0 60.331l170.667 170.667c16.683 16.683 43.648 16.683 60.331 0s16.683-43.648 0-60.331l-140.501-140.501 140.501-140.501c16.683-16.683 16.683-43.648 0-60.331-8.32-8.32-19.243-12.501-30.165-12.501z" />
<glyph unicode="&#xe90c;" glyph-name="double-arrow-right" d="M554.667 234.667c-10.923 0-21.845 4.181-30.165 12.501-16.683 16.683-16.683 43.648 0 60.331l140.501 140.501-140.501 140.501c-16.683 16.683-16.683 43.648 0 60.331s43.648 16.683 60.331 0l170.667-170.667c16.683-16.683 16.683-43.648 0-60.331l-170.667-170.667c-8.32-8.32-19.243-12.501-30.165-12.501zM298.667 234.667c-10.923 0-21.845 4.181-30.165 12.501-16.683 16.683-16.683 43.648 0 60.331l140.501 140.501-140.501 140.501c-16.683 16.683-16.683 43.648 0 60.331s43.648 16.683 60.331 0l170.667-170.667c16.683-16.683 16.683-43.648 0-60.331l-170.667-170.667c-8.32-8.32-19.243-12.501-30.165-12.501z" />
<glyph unicode="&#xe90d;" glyph-name="double-arrow-up" d="M682.667 192c-10.923 0-21.845 4.181-30.165 12.501l-140.501 140.501-140.501-140.501c-16.683-16.683-43.648-16.683-60.331 0s-16.683 43.648 0 60.331l170.667 170.667c16.683 16.683 43.648 16.683 60.331 0l170.667-170.667c16.683-16.683 16.683-43.648 0-60.331-8.32-8.32-19.243-12.501-30.165-12.501zM682.667 448c-10.923 0-21.845 4.181-30.165 12.501l-140.501 140.501-140.501-140.501c-16.683-16.683-43.648-16.683-60.331 0s-16.683 43.648 0 60.331l170.667 170.667c16.683 16.683 43.648 16.683 60.331 0l170.667-170.667c16.683-16.683 16.683-43.648 0-60.331-8.32-8.32-19.243-12.501-30.165-12.501z" />
<glyph unicode="&#xe90e;" glyph-name="draft" d="M512 21.376c-235.264 0-426.667 191.403-426.667 426.667s191.403 426.667 426.667 426.667 426.667-191.403 426.667-426.667-191.403-426.667-426.667-426.667zM512 789.376c-188.203 0-341.333-153.131-341.333-341.333s153.131-341.333 341.333-341.333 341.333 153.131 341.333 341.333-153.131 341.333-341.333 341.333zM640 277.376c-10.923 0-21.845 4.181-30.165 12.501l-97.835 97.835-97.835-97.835c-16.683-16.683-43.648-16.683-60.331 0s-16.683 43.648 0 60.331l97.835 97.835-97.835 97.835c-16.683 16.683-16.683 43.648 0 60.331s43.648 16.683 60.331 0l97.835-97.835 97.835 97.835c16.683 16.683 43.648 16.683 60.331 0s16.683-43.648 0-60.331l-97.835-97.835 97.835-97.835c16.683-16.683 16.683-43.648 0-60.331-8.32-8.32-19.243-12.501-30.165-12.501z" />
<glyph unicode="&#xe90f;" glyph-name="drag" d="M640 106.709c-47.061 0-85.333 38.272-85.333 85.333s38.272 85.333 85.333 85.333 85.333-38.272 85.333-85.333-38.272-85.333-85.333-85.333zM640 192v0zM640 192v0zM640 192v0zM640 192v0zM640 192v0zM640 192.043v0zM640 192.043v0zM640 192.043v0zM384 106.709c-47.061 0-85.333 38.272-85.333 85.333s38.272 85.333 85.333 85.333 85.333-38.272 85.333-85.333-38.272-85.333-85.333-85.333zM384 192v0zM384 192v0zM384 192v0zM384 192v0zM384 192v0zM384 192.043v0zM384 192.043v0zM384 192.043v0zM640 362.709c-47.061 0-85.333 38.272-85.333 85.333s38.272 85.333 85.333 85.333 85.333-38.272 85.333-85.333-38.272-85.333-85.333-85.333zM640 448v0zM640 448v0zM640 448v0zM640 448v0zM640 448v0zM640 448.043v0zM640 448.043v0zM640 448.043v0zM384 362.709c-47.061 0-85.333 38.272-85.333 85.333s38.272 85.333 85.333 85.333 85.333-38.272 85.333-85.333-38.272-85.333-85.333-85.333zM384 448v0zM384 448v0zM384 448v0zM384 448v0zM384 448v0zM384 448.043v0zM384 448.043v0zM384 448.043v0zM640 618.709c-47.061 0-85.333 38.272-85.333 85.333s38.272 85.333 85.333 85.333 85.333-38.272 85.333-85.333-38.272-85.333-85.333-85.333zM640 704v0zM640 704v0zM640 704v0zM640 704v0zM640 704v0zM640 704.043v0zM640 704.043v0zM640 704.043v0zM384 618.709c-47.061 0-85.333 38.272-85.333 85.333s38.272 85.333 85.333 85.333 85.333-38.272 85.333-85.333-38.272-85.333-85.333-85.333zM384 704v0zM384 704v0zM384 704v0zM384 704v0zM384 704v0zM384 704.043v0zM384 704.043v0zM384 704.043v0z" />
<glyph unicode="&#xe910;" glyph-name="language" d="M511.573 21.333c-235.264 0-426.667 191.403-426.667 426.667s191.445 426.667 426.667 426.667 426.667-191.403 426.667-426.667-191.403-426.667-426.667-426.667zM384.683 405.333c9.429-183.68 78.379-298.667 126.933-298.667s117.504 114.987 126.933 298.667h-253.824zM723.968 405.333c-4.736-104.491-26.752-195.755-60.715-263.083 100.181 49.877 172.544 147.627 187.008 263.083h-126.293zM172.928 405.333c14.464-115.456 86.827-213.205 187.008-263.083-33.963 67.328-55.979 158.592-60.715 263.083h-126.293zM723.968 490.667h126.293c-14.464 115.456-86.827 213.205-187.008 263.083 33.963-67.328 55.979-158.592 60.715-263.083zM384.683 490.667h253.824c-9.429 183.68-78.379 298.667-126.933 298.667s-117.504-114.987-126.933-298.667zM172.928 490.667h126.293c4.736 104.491 26.752 195.755 60.715 263.083-100.181-49.877-172.544-147.627-187.008-263.083z" />
<glyph unicode="&#xe911;" glyph-name="last-edit-date" d="M716.928 64.043h-409.813c-52.779 0-81.877 0-109.227 13.952-24.192 12.331-43.52 31.659-55.936 55.893-13.952 27.435-13.952 56.533-13.952 109.355v409.6c0 52.821 0 81.963 13.909 109.312 12.373 24.235 31.701 43.563 55.979 55.936 25.856 13.227 53.291 13.909 100.779 13.952v42.667c0 23.552 19.072 42.667 42.667 42.667s42.667-19.115 42.667-42.667v-42.667h256v42.667c0 23.552 19.072 42.667 42.667 42.667s42.667-19.115 42.667-42.667v-42.667c47.488 0 74.923-0.768 100.736-13.952 24.235-12.373 43.605-31.701 55.979-55.936 13.952-27.349 13.952-56.405 13.952-109.227v-409.856c0-52.736 0-81.792-13.909-109.184-12.416-24.235-31.787-43.563-55.979-55.936-27.349-13.952-56.363-13.952-109.184-13.952zM213.333 576.043v-332.8c0-36.992 0-61.44 4.651-70.571 4.096-8.064 10.581-14.549 18.645-18.688 9.088-4.608 33.493-4.608 70.443-4.608h409.813c36.907 0 61.355 0 70.4 4.608 8.064 4.139 14.592 10.624 18.688 18.688 4.608 9.088 4.608 33.451 4.608 70.357v332.971h-597.248zM213.333 661.376h597.333c0 32.256-0.384 53.675-4.608 62.037-4.139 8.021-10.581 14.507-18.688 18.688-9.088 4.608-33.536 4.608-70.528 4.608h-409.6c-36.992 0-61.44 0-70.571-4.651-8.064-4.096-14.549-10.539-18.688-18.645-4.267-8.363-4.565-29.781-4.608-62.037zM682.752 234.624c-10.923 0-21.845 4.181-30.165 12.501s-12.501 19.243-12.501 30.165c0 10.965 4.139 21.888 12.459 30.208 16.683 16.683 43.605 16.725 60.288 0l0.085-0.085c8.32-8.32 12.501-19.243 12.501-30.165s-4.181-21.845-12.501-30.165-19.243-12.501-30.165-12.501zM512.085 234.624c-10.923 0-21.845 4.181-30.165 12.501s-12.501 19.243-12.501 30.165c0 10.965 4.139 21.888 12.459 30.208 16.683 16.683 43.605 16.725 60.288 0l0.085-0.085c8.32-8.32 12.501-19.243 12.501-30.165s-4.181-21.845-12.501-30.165-19.243-12.501-30.165-12.501zM341.419 234.624c-10.923 0-21.845 4.181-30.165 12.501s-12.501 19.243-12.501 30.165c0 10.965 4.139 21.888 12.459 30.208 16.683 16.683 43.605 16.725 60.288 0l0.085-0.085c8.32-8.32 12.501-19.243 12.501-30.165s-4.181-21.845-12.501-30.165-19.243-12.501-30.165-12.501zM682.667 405.291c-10.923 0-21.845 4.181-30.165 12.501s-12.501 19.243-12.501 30.165 4.181 21.845 12.501 30.165c16.683 16.683 43.691 16.725 60.373 0 8.32-8.32 12.501-19.243 12.501-30.123 0-10.923-4.139-21.845-12.459-30.165l-0.085-0.085c-8.32-8.32-19.243-12.501-30.165-12.501zM512.085 405.291c-10.923 0-21.845 4.181-30.165 12.501s-12.501 19.243-12.501 30.165c0 10.965 4.139 21.888 12.459 30.208 16.683 16.683 43.605 16.725 60.288 0l0.085-0.085c8.32-8.32 12.501-19.243 12.501-30.165s-4.181-21.845-12.501-30.165-19.243-12.501-30.165-12.501zM341.419 405.291c-10.923 0-21.845 4.181-30.165 12.501s-12.501 19.243-12.501 30.165c0 10.965 4.139 21.888 12.459 30.208 16.683 16.683 43.605 16.725 60.288 0l0.085-0.085c8.32-8.32 12.501-19.243 12.501-30.165s-4.181-21.845-12.501-30.165-19.243-12.501-30.165-12.501z" />
<glyph unicode="&#xe912;" glyph-name="last-edit-user" d="M768 106.709c-23.552 0-42.667 19.072-42.667 42.667 0 69.376-97.707 128-213.333 128s-213.333-58.624-213.333-128c0-23.595-19.115-42.667-42.667-42.667s-42.667 19.072-42.667 42.667c0 119.637 131.2 213.333 298.667 213.333s298.667-93.696 298.667-213.333c0-23.595-19.115-42.667-42.667-42.667zM512 405.376c-117.632 0-213.333 95.701-213.333 213.333s95.701 213.333 213.333 213.333 213.333-95.701 213.333-213.333-95.701-213.333-213.333-213.333zM512 746.709c-70.571 0-128-57.429-128-128s57.429-128 128-128 128 57.429 128 128-57.429 128-128 128z" />
<glyph unicode="&#xe913;" glyph-name="light-mode" d="M512-21.333c-23.595 0-42.667 19.115-42.667 42.667v85.333c0 23.552 19.072 42.667 42.667 42.667s42.667-19.115 42.667-42.667v-85.333c0-23.552-19.072-42.667-42.667-42.667zM816.725 100.608c-10.923 0-21.845 4.181-30.165 12.501l-60.331 60.331c-16.683 16.683-16.683 43.648 0 60.331s43.648 16.683 60.331 0l60.331-60.331c16.683-16.683 16.683-43.648 0-60.331-8.32-8.32-19.243-12.501-30.165-12.501zM213.333 100.608c-10.923 0-21.845 4.181-30.165 12.501-16.683 16.683-16.683 43.691 0 60.373l60.373 60.331c16.683 16.64 43.648 16.64 60.331 0s16.683-43.691 0-60.373l-60.373-60.331c-8.32-8.32-19.243-12.459-30.165-12.459zM512 192c-141.184 0-256 114.816-256 256s114.816 256 256 256 256-114.816 256-256-114.816-256-256-256zM512 618.667c-94.123 0-170.667-76.544-170.667-170.667s76.544-170.667 170.667-170.667 170.667 76.544 170.667 170.667-76.544 170.667-170.667 170.667zM938.667 405.333h-85.333c-23.595 0-42.667 19.115-42.667 42.667s19.072 42.667 42.667 42.667h85.333c23.595 0 42.667-19.115 42.667-42.667s-19.072-42.667-42.667-42.667zM170.667 405.333h-85.333c-23.595 0-42.667 19.115-42.667 42.667s19.072 42.667 42.667 42.667h85.333c23.595 0 42.667-19.115 42.667-42.667s-19.072-42.667-42.667-42.667zM756.437 643.669c-10.923 0-21.845 4.181-30.165 12.501-16.683 16.683-16.683 43.648 0 60.331l60.331 60.331c16.683 16.683 43.648 16.683 60.331 0s16.683-43.648 0-60.331l-60.331-60.331c-8.32-8.32-19.243-12.501-30.165-12.501zM273.664 643.669c-10.923 0-21.845 4.181-30.165 12.501l-60.331 60.331c-16.683 16.683-16.683 43.648 0 60.331s43.648 16.683 60.331 0l60.331-60.331c16.683-16.683 16.683-43.648 0-60.331-8.32-8.32-19.243-12.501-30.165-12.501zM512 746.667c-23.595 0-42.667 19.115-42.667 42.667v85.333c0 23.552 19.072 42.667 42.667 42.667s42.667-19.115 42.667-42.667v-85.333c0-23.552-19.072-42.667-42.667-42.667z" />
<glyph unicode="&#xe914;" glyph-name="page-type" d="M674.261 21.376h-324.523c-52.779 0-81.835 0-109.184 13.952-24.192 12.331-43.52 31.659-55.893 55.893-13.995 27.435-13.995 56.533-13.995 109.355v494.933c0 52.821 0 81.963 13.952 109.312 12.373 24.235 31.701 43.563 55.936 55.936 27.435 13.952 56.533 13.952 109.355 13.952h204.587s0.299 0 0.469 0c14.165-0.085 25.259-0.725 36.821-3.456 13.269-3.2 25.771-8.363 37.248-15.445 12.843-7.893 22.528-17.579 38.528-33.621l133.333-133.333c16-15.957 25.643-25.6 33.621-38.528 7.083-11.605 12.203-24.021 15.317-37.077 2.731-11.307 3.371-22.059 3.541-36.693v-376.064c0-52.736 0-81.792-13.909-109.184-12.416-24.235-31.744-43.563-55.979-55.936-27.392-13.952-56.448-13.952-109.184-13.952zM349.867 789.376c-37.035 0-61.44 0-70.613-4.651-8.021-4.096-14.507-10.539-18.645-18.645-4.608-9.131-4.608-33.579-4.608-70.571v-494.933c0-36.992 0-61.44 4.651-70.571 4.139-8.064 10.581-14.549 18.688-18.688 9.088-4.608 33.493-4.608 70.4-4.608h324.523c36.907 0 61.312 0 70.4 4.608 8.107 4.139 14.592 10.624 18.731 18.688 4.608 9.088 4.608 33.451 4.608 70.357v332.971h-76.928c-52.779 0-81.835 0-109.184 13.952-24.192 12.331-43.52 31.659-55.893 55.893-13.995 27.435-13.995 56.533-13.995 109.355v76.8h-162.133zM597.333 771.627v-59.051c0-36.992 0-61.44 4.651-70.571 4.139-8.064 10.581-14.549 18.688-18.688 9.088-4.608 33.493-4.608 70.4-4.608h59.221c-2.773 2.816-6.016 6.059-9.728 9.771l-133.333 133.376c-3.755 3.755-6.997 6.997-9.856 9.771z" />
<glyph unicode="&#xe915;" glyph-name="plus" d="M511.573 149.376c-23.595 0-42.667 19.072-42.667 42.667v213.333h-213.333c-23.595 0-42.667 19.072-42.667 42.667s19.072 42.667 42.667 42.667h213.333v213.333c0 23.595 19.072 42.667 42.667 42.667s42.667-19.072 42.667-42.667v-213.333h213.333c23.595 0 42.667-19.072 42.667-42.667s-19.072-42.667-42.667-42.667h-213.333v-213.333c0-23.595-19.072-42.667-42.667-42.667z" />
<glyph unicode="&#xe916;" glyph-name="preview" d="M716.544 21.333h-409.899c-52.779 0-81.877 0-109.227 13.952-24.192 12.331-43.52 31.659-55.936 55.851-13.952 27.477-13.952 56.576-13.952 109.397v204.8c0 43.904 0 68.096 9.771 91.648 12.928 31.147 38.187 56.405 69.333 69.291 23.424 9.728 47.616 9.728 91.563 9.728 23.595 0 42.667-19.115 42.667-42.667s-19.072-42.667-42.667-42.667c-30.805 0-51.115 0-58.923-3.243-10.453-4.309-18.859-12.715-23.168-23.125-3.243-7.851-3.243-28.203-3.243-58.965v-204.8c0-37.035 0-61.44 4.651-70.613 4.096-8.021 10.581-14.507 18.645-18.645 9.088-4.608 33.493-4.608 70.443-4.608h409.856c36.907 0 61.312 0 70.4 4.651 8.021 4.096 14.549 10.624 18.688 18.688 4.608 9.045 4.608 33.451 4.608 70.357v204.928c0 30.805 0 51.157-3.243 58.965-4.309 10.411-12.715 18.816-23.083 23.083-7.893 3.285-28.203 3.285-59.008 3.285-23.595 0-42.667 19.115-42.667 42.667s19.072 42.667 42.667 42.667c43.947 0 68.181 0 91.648-9.771 31.104-12.843 56.32-38.101 69.248-69.248 9.771-23.552 9.771-47.744 9.771-91.648v-204.928c0-52.736 0-81.792-13.909-109.141-12.416-24.277-31.744-43.563-55.936-55.936-27.435-13.995-56.448-13.995-109.227-13.995zM511.573 362.667c-23.595 0-42.667 19.115-42.667 42.667v323.669l-55.168-55.168c-16.683-16.683-43.648-16.683-60.331 0s-16.683 43.648 0 60.331l128 128c4.139 4.096 8.832 7.211 13.909 9.301 4.949 2.048 10.411 3.2 16.128 3.2h0.256c5.717 0 11.179-1.152 16.128-3.2 5.077-2.091 9.771-5.205 13.909-9.301l128-128c16.683-16.683 16.683-43.648 0-60.331s-43.648-16.683-60.331 0l-55.168 55.168v-323.669c0-23.552-19.072-42.667-42.667-42.667z" />
<glyph unicode="&#xe917;" glyph-name="published" d="M512 21.376c-235.264 0-426.667 191.403-426.667 426.667s191.445 426.667 426.667 426.667 426.667-191.403 426.667-426.667-191.403-426.667-426.667-426.667zM512 789.376c-188.203 0-341.333-153.131-341.333-341.333s153.131-341.333 341.333-341.333 341.333 153.131 341.333 341.333-153.131 341.333-341.333 341.333zM469.333 320.043c-10.923 0-21.845 4.181-30.165 12.501l-85.333 85.333c-16.683 16.683-16.683 43.648 0 60.331s43.648 16.683 60.331 0l55.168-55.168 140.501 140.501c16.683 16.683 43.648 16.683 60.331 0s16.683-43.648 0-60.331l-170.667-170.667c-8.32-8.32-19.243-12.501-30.165-12.501z" />
<glyph unicode="&#xe918;" glyph-name="search" d="M426.667 64h-119.595c-52.779 0-81.835 0-109.184 13.952-24.235 12.416-43.563 31.744-55.936 55.936-13.952 27.435-13.952 56.533-13.952 109.355v409.557c0 52.821 0 81.92 13.952 109.312 12.373 24.235 31.701 43.605 55.936 55.979 27.392 13.952 56.491 13.952 109.312 13.952h409.6c52.779 0 81.877 0 109.269-13.952 24.277-12.373 43.648-31.744 55.979-55.936 13.952-27.349 13.952-56.405 13.952-109.184v-119.595c0-23.552-19.115-42.667-42.667-42.667s-42.667 19.115-42.667 42.667v119.595c0 36.949 0 61.355-4.651 70.443-4.096 8.064-10.581 14.507-18.688 18.645-9.088 4.651-33.536 4.651-70.528 4.651h-409.6c-37.035 0-61.483 0-70.613-4.651-8.064-4.096-14.507-10.581-18.645-18.645-4.651-9.088-4.651-33.579-4.651-70.571v-409.6c0-37.035 0-61.44 4.651-70.613 4.096-8.021 10.581-14.464 18.688-18.645 9.045-4.608 33.451-4.608 70.4-4.608h119.595c23.552 0 42.667-19.115 42.667-42.667s-19.115-42.667-42.667-42.667zM810.667 106.667c-10.923 0-21.845 4.181-30.165 12.501l-102.315 102.315c-29.611-18.688-64.64-29.483-102.187-29.483-105.856 0-192 86.144-192 192s86.144 192 192 192 192-86.144 192-192c0-37.504-10.795-72.576-29.483-102.187l102.315-102.315c16.683-16.683 16.683-43.648 0-60.331-8.32-8.32-19.243-12.501-30.165-12.501zM576 490.667c-58.795 0-106.667-47.872-106.667-106.667s47.872-106.667 106.667-106.667 106.667 47.872 106.667 106.667-47.872 106.667-106.667 106.667z" />
<glyph unicode="&#xe919;" glyph-name="search-2" d="M896 21.333c-10.923 0-21.845 4.181-30.165 12.501l-229.973 229.973c-57.813-44.971-130.475-71.808-209.195-71.808-188.203 0-341.333 153.131-341.333 341.333s153.131 341.333 341.333 341.333 341.333-153.131 341.333-341.333c0-78.763-26.795-151.381-71.808-209.195l229.973-229.973c16.683-16.683 16.683-43.648 0-60.331-8.32-8.32-19.243-12.501-30.165-12.501zM426.667 789.333c-141.184 0-256-114.816-256-256s114.816-256 256-256 256 114.816 256 256-114.816 256-256 256z" />
<glyph unicode="&#xe91a;" glyph-name="settings" d="M646.272 3.115c-9.472 0-18.901 1.024-28.117 3.072-20.224 4.565-36.565 14.379-63.744 30.72l-16.085 9.685c-8.661 4.907-15.317 6.784-22.144 6.997h-4.224s-4.309 0-4.309 0c-6.699-0.213-13.227-2.005-19.157-5.333l-18.731-11.179c-28.075-16.853-43.477-26.027-63.573-30.549-17.451-3.925-36.224-4.096-53.931-0.427-20.139 4.139-35.627 13.099-63.829 29.355l-21.205 12.203c-28.629 16.512-44.117 25.472-57.771 40.789-12.16 13.611-21.163 29.44-26.624 47.019-6.229 19.669-5.888 37.717-5.333 70.485l0.256 17.28s0 4.395 0 4.565c-0.085 6.699-1.792 13.312-4.821 19.072-0.171 0.213-2.219 3.883-2.389 4.139-0.085 0.128-2.048 3.541-2.133 3.669-3.541 5.717-8.448 10.581-14.251 14.080l-3.883 2.176-15.317 8.533c-27.477 15.275-44.075 24.491-58.027 39.637-12.373 13.397-21.547 29.013-27.349 46.421-6.571 19.712-6.613 38.699-6.656 70.144l-0.085 23.893c0 31.744-0.085 50.816 6.272 70.443 6.016 17.877 15.232 33.579 27.648 46.976 13.867 15.147 30.677 24.448 58.453 39.851l15.317 8.491c9.557 5.547 14.421 10.325 18.048 16.213 0.085 0.085 4.096 7.040 4.139 7.125 3.2 6.016 4.992 12.757 5.077 19.541l-0.384 22.229c-0.555 32.597-0.896 50.603 5.291 70.229 5.504 17.579 14.421 33.365 26.581 47.019 13.44 15.232 28.885 24.192 56.917 40.448l21.248 12.373c27.733 16.043 44.075 25.557 64.256 29.739 17.707 3.669 36.48 3.541 54.144-0.384 20.267-4.523 36.651-14.379 63.829-30.72l15.147-9.088c9.515-5.419 16.171-7.296 22.955-7.509h4.224c10.965 0.213 17.621 2.048 23.509 5.333l18.731 11.179c27.136 16.256 43.435 26.027 63.531 30.507 17.835 4.053 36.011 4.224 53.973 0.469 20.224-4.181 36.693-13.696 64.043-29.483l21.035-12.117c27.435-15.787 43.947-25.301 57.771-40.789 12.117-13.525 21.12-29.397 26.624-47.019 6.187-19.456 5.845-38.229 5.291-69.333l-0.299-18.901v-4.352c0.085-6.656 1.835-13.312 5.035-19.285 0-0.128 2.091-3.712 2.133-3.84 5.589-9.216 10.539-14.123 16.341-17.536l19.285-10.752c29.141-16.171 44.501-24.832 58.155-39.723 12.245-13.269 21.504-28.885 27.307-46.336 6.528-19.584 6.571-38.613 6.613-70.144l0.085-24.405c0-31.701 0.085-50.56-6.272-69.973-5.845-17.621-15.061-33.323-27.52-46.805-14.037-15.275-30.848-24.533-58.581-39.936l-19.669-10.923c-5.12-3.072-10.112-7.979-13.696-13.781 0 0-2.176-3.669-2.219-3.712-5.12-9.429-6.869-16.128-6.955-22.827l0.341-22.955c0.512-31.872 0.811-50.389-5.291-69.76-5.333-17.28-14.251-33.109-26.453-46.848-13.653-15.36-30.080-24.875-57.259-40.661l-21.12-12.288c-27.605-16-43.989-25.515-64.171-29.739-8.491-1.792-17.237-2.645-26.027-2.645zM511.957 138.88h6.827c20.437-0.725 40.576-6.272 58.325-16.213 0.427-0.213 4.736-2.731 5.163-2.987l16.043-9.643c19.797-11.861 31.744-19.072 38.485-20.565 5.973-1.323 12.16-1.365 18.048-0.128 6.656 1.408 18.603 8.277 38.315 19.712l21.547 12.501c19.797 11.52 31.744 18.432 36.309 23.552 4.053 4.523 6.997 9.771 8.789 15.573 2.005 6.4 1.792 19.712 1.451 41.771l-0.384 27.392c0.256 19.584 5.504 39.936 15.189 57.941l6.741 11.691c10.795 17.365 25.728 32.043 43.221 42.496l21.333 11.861c20.309 11.264 32.512 18.005 37.205 23.125 4.096 4.437 7.296 9.856 9.216 15.659 2.048 6.272 2.048 20.011 2.005 42.709l-0.085 24.832c0 22.997 0 36.821-2.219 43.349-1.963 5.888-5.035 11.093-9.131 15.488-4.651 5.12-16.768 11.819-36.779 22.955 0 0-0.128 0.043-0.171 0.043l-21.205 11.861c-17.707 10.624-32.597 25.216-43.307 42.496-0.299 0.427-2.56 4.224-2.773 4.693l-4.395 7.808c-9.387 17.408-14.635 37.717-14.891 58.069l0.299 24.875c0.427 23.296 0.64 36.821-1.323 43.136-1.877 6.016-4.864 11.264-8.875 15.744-4.693 5.291-17.451 12.587-36.693 23.68l-21.077 12.16c-19.925 11.52-31.915 18.432-38.656 19.84-6.016 1.237-11.989 1.195-18.005-0.128-6.741-1.536-18.645-8.619-38.272-20.437l-21.333-12.672c-17.579-9.771-37.675-15.317-57.941-16h-6.912s-6.869 0-6.869 0c-20.437 0.64-40.533 6.229-58.24 16.128-0.427 0.213-3.541 2.048-4.011 2.304l-17.152 10.325c-19.84 11.904-31.744 19.115-38.528 20.608-5.888 1.28-12.075 1.365-17.963 0.128-6.741-1.408-18.645-8.277-38.315-19.712l-21.419-12.459c-20.053-11.648-31.915-18.517-36.395-23.552-4.139-4.651-7.125-9.899-8.96-15.829-2.005-6.485-1.792-20.395-1.365-43.392l0.341-25.643c-0.299-19.669-5.547-39.979-15.189-57.941l-7.339-12.629c-10.24-16.469-25.173-31.147-42.667-41.557l-21.291-11.861c-20.267-11.221-32.469-17.963-37.12-23.040-4.224-4.565-7.339-9.856-9.344-15.872-2.048-6.315-2.048-20.352-2.005-43.52l0.085-23.893c0-24.149 0.171-36.992 2.261-43.349 2.005-5.888 5.035-11.136 9.131-15.573 4.651-5.035 16.811-11.776 36.821-22.912l21.675-12.117c17.408-10.496 32.256-25.131 42.88-42.368l7.381-12.843c9.259-17.493 14.379-37.419 14.72-57.557 0-1.451 0-3.541 0-7.723l-0.256-16.811c-0.427-23.168-0.64-37.12 1.408-43.648 1.835-5.931 4.821-11.179 8.875-15.744 4.565-5.12 16.555-12.032 36.352-23.467l21.419-12.331c20.053-11.563 32-18.475 38.656-19.84 5.973-1.28 12.075-1.195 17.963 0.128 6.784 1.493 18.645 8.619 38.229 20.395l21.419 12.715c17.621 9.771 37.675 15.36 57.899 16h6.912zM512 234.667c-117.632 0-213.333 95.701-213.333 213.333s95.701 213.333 213.333 213.333 213.333-95.701 213.333-213.333-95.701-213.333-213.333-213.333zM512 576c-70.571 0-128-57.429-128-128s57.429-128 128-128 128 57.429 128 128-57.429 128-128 128z" />
<glyph unicode="&#xe91b;" glyph-name="small-arrow-down" d="M512 320c-10.923 0-21.845 4.181-30.165 12.501l-170.667 170.667c-16.683 16.683-16.683 43.648 0 60.331s43.648 16.683 60.331 0l140.501-140.501 140.501 140.501c16.683 16.683 43.648 16.683 60.331 0s16.683-43.648 0-60.331l-170.667-170.667c-8.32-8.32-19.243-12.501-30.165-12.501z" />
<glyph unicode="&#xe91c;" glyph-name="small-arrow-left" d="M597.333 234.667c-10.923 0-21.845 4.181-30.165 12.501l-170.667 170.667c-16.683 16.683-16.683 43.648 0 60.331l170.667 170.667c16.683 16.683 43.648 16.683 60.331 0s16.683-43.648 0-60.331l-140.501-140.501 140.501-140.501c16.683-16.683 16.683-43.648 0-60.331-8.32-8.32-19.243-12.501-30.165-12.501z" />
<glyph unicode="&#xe91d;" glyph-name="small-arrow-right" d="M426.667 234.667c-10.923 0-21.845 4.181-30.165 12.501-16.683 16.683-16.683 43.648 0 60.331l140.501 140.501-140.501 140.501c-16.683 16.683-16.683 43.648 0 60.331s43.648 16.683 60.331 0l170.667-170.667c16.683-16.683 16.683-43.648 0-60.331l-170.667-170.667c-8.32-8.32-19.243-12.501-30.165-12.501z" />
<glyph unicode="&#xe91e;" glyph-name="small-arrow-up" d="M682.667 320c-10.923 0-21.845 4.181-30.165 12.501l-140.501 140.501-140.501-140.501c-16.683-16.683-43.648-16.683-60.331 0s-16.683 43.648 0 60.331l170.667 170.667c16.683 16.683 43.648 16.683 60.331 0l170.667-170.667c16.683-16.683 16.683-43.648 0-60.331-8.32-8.32-19.243-12.501-30.165-12.501z" />
<glyph unicode="&#xe91f;" glyph-name="user" d="M512 21.376c-91.051 0-175.531 28.672-244.907 77.44-1.621 0.981-3.2 2.133-4.693 3.371-107.179 77.568-177.024 203.691-177.024 345.813-0.043 235.307 191.36 426.709 426.624 426.709s426.667-191.403 426.667-426.667c0-142.123-69.845-268.245-177.024-345.813-1.493-1.237-3.072-2.389-4.693-3.371-69.376-48.811-153.856-77.44-244.907-77.44zM360.363 142.293c91.392-45.568 211.883-45.568 303.232 0-87.253 64-215.979 64-303.232 0zM512 277.376c83.371 0 163.627-30.677 225.664-85.248 70.912 62.635 115.669 154.112 115.669 255.915 0 188.203-153.131 341.333-341.333 341.333s-341.333-153.131-341.333-341.333c0-101.803 44.8-193.28 115.669-255.915 62.037 54.571 142.251 85.248 225.664 85.248zM512 320.043c-94.123 0-170.667 76.544-170.667 170.667s76.544 170.667 170.667 170.667 170.667-76.544 170.667-170.667-76.544-170.667-170.667-170.667zM512 576.043c-47.061 0-85.333-38.272-85.333-85.333s38.272-85.333 85.333-85.333 85.333 38.272 85.333 85.333-38.272 85.333-85.333 85.333z" />
<glyph unicode="&#xe920;" glyph-name="workflow" d="M896 192h-217.344c-16.768 0-27.776 0-40.448 4.053-11.349 3.584-21.632 9.429-30.507 17.323-9.856 8.704-15.531 18.176-24.149 32.512l-216.235 360.363c-3.797 6.315-5.973 10.453-8.363 13.312-1.579-0.64-6.229-0.896-13.568-0.896h-217.387c-23.595 0-42.667 19.115-42.667 42.667s19.072 42.667 42.667 42.667h217.344c16.725 0 27.733 0 40.405-4.053 11.264-3.584 21.504-9.344 30.379-17.195 10.027-8.832 15.701-18.304 24.32-32.64l216.235-360.363c3.797-6.315 5.973-10.453 8.363-13.312 1.536 0.64 6.229 0.896 13.568 0.896h217.344c23.595 0 42.667-19.115 42.667-42.667s-19.072-42.667-42.667-42.667zM896 618.667h-256c-23.595 0-42.667 19.115-42.667 42.667s19.072 42.667 42.667 42.667h256c23.595 0 42.667-19.115 42.667-42.667s-19.072-42.667-42.667-42.667z" />
<glyph unicode="&#xe921;" glyph-name="security" d="M512.043 27.861c-7.979 0-15.915 0.512-21.675 1.493-16.043 2.688-24.533 6.528-35.243 11.392-98.517 44.629-327.125 181.035-327.125 485.547v169.173c0 52.821 0 81.92 13.952 109.312 12.373 24.235 31.701 43.605 55.936 55.979 27.392 13.952 56.491 13.952 109.312 13.952h409.6c52.779 0 81.92 0 109.312-13.952 24.277-12.373 43.648-31.744 55.979-55.979 13.909-27.307 13.909-56.363 13.909-109.141v-169.301c0-304.512-228.608-440.917-326.912-485.461-10.709-4.821-19.499-8.747-35.456-11.477-5.717-0.981-13.653-1.493-21.589-1.493zM307.2 789.333c-37.035 0-61.483 0-70.613-4.651-8.064-4.096-14.507-10.581-18.645-18.645-4.651-9.088-4.651-33.579-4.651-70.571v-169.173c0-254.848 193.579-370.048 276.779-407.723 8.405-3.797 9.301-4.224 14.635-5.077 2.859-0.427 11.691-0.427 14.805 0 4.992 0.896 5.845 1.237 13.995 4.907 83.584 37.845 277.163 153.045 277.163 407.893v169.301c0 36.949 0 61.355-4.608 70.443-4.139 8.064-10.581 14.507-18.688 18.645-9.131 4.651-33.536 4.651-70.528 4.651h-409.643zM469.333 362.667c-10.923 0-21.845 4.181-30.165 12.501l-85.333 85.333c-16.683 16.683-16.683 43.648 0 60.331s43.648 16.683 60.331 0l55.168-55.168 140.501 140.501c16.683 16.683 43.648 16.683 60.331 0s16.683-43.648 0-60.331l-170.667-170.667c-8.32-8.32-19.243-12.501-30.165-12.501z" />
<glyph unicode="&#xe922;" glyph-name="bin1" d="M631.168 21.376h-239.147c-52.779 0-81.877 0-109.227 13.952-24.192 12.331-43.52 31.659-55.936 55.893-13.952 27.435-13.952 56.533-13.952 109.355v460.8h-42.667c-23.595 0-42.667 19.072-42.667 42.667s19.072 42.667 42.667 42.667h128.555c0.896 19.627 3.157 34.475 9.259 48.981 13.056 31.573 37.675 56.149 69.205 69.248 23.509 9.771 47.701 9.771 91.648 9.771h85.333c43.947 0 68.181 0 91.648-9.771 31.531-13.056 56.149-37.675 69.248-69.291 6.059-14.507 8.32-29.355 9.216-48.939h128.555c23.595 0 42.667-19.072 42.667-42.667s-19.072-42.667-42.667-42.667h-42.667v-460.928c0-52.736 0-81.835-13.909-109.227-12.416-24.235-31.787-43.563-55.979-55.936-27.349-13.952-56.363-13.952-109.184-13.952zM298.24 661.376v-460.8c0-36.992 0-61.44 4.651-70.571 4.096-8.064 10.581-14.549 18.645-18.688 9.088-4.608 33.493-4.608 70.443-4.608h239.147c36.907 0 61.355 0 70.4 4.608 8.064 4.139 14.592 10.624 18.688 18.688 4.608 9.088 4.608 33.451 4.608 70.4v460.971h-426.581zM384.213 746.709h254.763c-0.469 7.509-1.237 13.013-2.603 16.256-4.352 10.411-12.8 18.859-23.168 23.168-7.851 3.243-28.16 3.243-58.965 3.243h-85.333c-30.805 0-51.157 0-59.008-3.243-10.496-4.395-18.688-12.587-23.083-23.125-1.365-3.285-2.176-8.747-2.645-16.299zM596.907 192.043c-23.595 0-42.667 19.072-42.667 42.667v298.667c0 23.595 19.072 42.667 42.667 42.667s42.667-19.072 42.667-42.667v-298.667c0-23.595-19.072-42.667-42.667-42.667zM426.24 192.043c-23.595 0-42.667 19.072-42.667 42.667v298.667c0 23.595 19.072 42.667 42.667 42.667s42.667-19.072 42.667-42.667v-298.667c0-23.595-19.072-42.667-42.667-42.667z" />
<glyph unicode="&#xe923;" glyph-name="bulb1" d="M640 21.333h-256c-23.552 0-42.667 19.115-42.667 42.667s19.115 42.667 42.667 42.667h256c23.552 0 42.667-19.115 42.667-42.667s-19.115-42.667-42.667-42.667zM597.333 149.333h-170.667c-47.061 0-85.333 38.272-85.333 85.333 0 14.635 0.043 21.931-0.256 26.752l-0.939 17.536c-0.299 6.059-0.299 9.813-0.853 12.885-0.853 1.579-2.901 4.693-5.973 9.899l-8.832 15.189c-3.157 5.291-21.632 33.365-57.387 87.893l-4.864 7.424c-32 48.64-48.896 105.259-48.896 163.755 0 164.693 133.973 298.667 298.667 298.667s298.667-133.973 298.667-298.667c0-58.453-16.896-115.072-48.853-163.755l-7.509-11.435c-34.048-51.883-51.755-78.763-54.955-84.139l-8.661-14.891c-3.072-5.248-5.163-8.363-6.357-11.264-0.171-1.792-0.171-5.504-0.469-11.563l-0.939-17.579c-0.299-4.821-0.256-12.16-0.256-26.752 0-47.061-38.272-85.333-85.333-85.333zM512 789.333c-117.632 0-213.333-95.701-213.333-213.333 0-41.771 12.075-82.176 34.859-116.907l4.907-7.467c45.141-68.821 57.088-87.040 60.16-92.373l8.277-14.251c14.976-25.429 17.024-32.384 18.517-61.824l0.896-16.427c0.341-5.76 0.427-14.549 0.427-32.085h170.667c0 17.536 0.043 26.368 0.427 32.128l0.896 16.469c1.451 29.397 3.541 36.352 18.517 61.824l8.235 14.165c3.029 5.291 14.421 22.699 57.6 88.448l7.509 11.435c22.827 34.731 34.859 75.136 34.859 116.907 0 117.632-95.701 213.333-213.333 213.333z" />
<glyph unicode="&#xe924;" glyph-name="close1" d="M682.667 234.667c-10.923 0-21.845 4.181-30.165 12.501l-140.501 140.501-140.501-140.501c-16.683-16.683-43.648-16.683-60.331 0s-16.683 43.648 0 60.331l140.501 140.501-140.501 140.501c-16.683 16.683-16.683 43.648 0 60.331s43.648 16.683 60.331 0l140.501-140.501 140.501 140.501c16.683 16.683 43.648 16.683 60.331 0s16.683-43.648 0-60.331l-140.501-140.501 140.501-140.501c16.683-16.683 16.683-43.648 0-60.331-8.32-8.32-19.243-12.501-30.165-12.501z" />
<glyph unicode="&#xe925;" glyph-name="content1" d="M716.501 64h-409.856c-52.779 0-81.877 0-109.227 13.952-24.149 12.288-43.52 31.616-55.936 55.893-13.952 27.435-13.952 56.533-13.952 109.312v409.643c0 52.821 0 81.92 13.909 109.312 12.459 24.32 31.787 43.648 55.979 55.979 27.392 13.952 56.491 13.952 109.312 13.952h119.467c23.595 0 42.667-19.115 42.667-42.667s-19.072-42.667-42.667-42.667h-119.467c-36.992 0-61.44 0-70.571-4.651-8.064-4.096-14.549-10.581-18.688-18.688-4.608-9.045-4.608-33.536-4.608-70.528v-409.6c0-36.992 0-61.44 4.651-70.571 4.139-8.064 10.581-14.549 18.645-18.645 9.088-4.651 33.493-4.651 70.443-4.651h409.813c36.907 0 61.355 0 70.4 4.608 8.064 4.139 14.549 10.624 18.688 18.731 4.608 9.045 4.608 33.451 4.608 70.357v119.595c0 23.552 19.072 42.667 42.667 42.667s42.667-19.115 42.667-42.667v-119.595c0-52.736 0-81.792-13.909-109.141-12.459-24.32-31.829-43.648-55.979-55.979-27.349-13.952-56.363-13.952-109.184-13.952zM554.24 320h-128c-23.595 0-42.667 19.115-42.667 42.667v128c0 11.307 4.48 22.187 12.501 30.165l384 384c16.683 16.683 43.648 16.683 60.331 0l128-128c16.683-16.683 16.683-43.648 0-60.331l-384-384c-8.021-8.021-18.816-12.501-30.165-12.501zM468.907 405.333h67.669l213.333 213.333-67.669 67.669-213.333-213.333v-67.669zM742.571 746.667l67.669-67.669 67.669 67.669-67.669 67.669-67.669-67.669z" />
<glyph unicode="&#xe926;" glyph-name="Copy" d="M520.533 874.667h243.2c21.333 0 42.667 0 59.733 0s34.133-4.267 51.2-12.8c25.6-12.8 42.667-29.867 55.467-55.467 8.533-17.067 12.8-34.133 12.8-51.2s0-34.133 0-59.733v-243.2c0-21.333 0-42.667 0-59.733s-4.267-34.133-12.8-51.2c-12.8-25.6-29.867-42.667-55.467-55.467-17.067-8.533-34.133-12.8-51.2-12.8s-34.133 0-59.733 0h-76.8v-76.8c0-21.333 0-42.667 0-59.733s-4.267-34.133-12.8-51.2c-12.8-25.6-29.867-42.667-55.467-55.467-17.067-8.533-34.133-12.8-51.2-12.8s-34.133 0-59.733 0h-243.2c-21.333 0-42.667 0-59.733 0s-34.133 4.267-51.2 12.8c-25.6 12.8-42.667 29.867-55.467 55.467-8.533 17.067-12.8 34.133-12.8 51.2s0 34.133 0 59.733v243.2c0 21.333 0 42.667 0 59.733s4.267 34.133 12.8 51.2c12.8 25.6 29.867 42.667 55.467 55.467 17.067 8.533 34.133 12.8 51.2 12.8s34.133 0 59.733 0h76.8v76.8c0 21.333 0 42.667 0 59.733s4.267 34.133 12.8 51.2c12.8 25.6 29.867 42.667 55.467 55.467 17.067 8.533 34.133 12.8 51.2 12.8s34.133 0 59.733 0zM426.667 618.667h76.8c21.333 0 42.667 0 59.733 0s34.133-4.267 51.2-12.8c25.6-12.8 42.667-29.867 55.467-55.467 8.533-17.067 12.8-34.133 12.8-51.2s0-34.133 0-59.733v-76.8h76.8c25.6 0 38.4 0 51.2 0s17.067 0 17.067 0c8.533 0 12.8 8.533 17.067 17.067 0 0 0 8.533 0 17.067 0 12.8 0 29.867 0 51.2v238.933c0 25.6 0 38.4 0 51.2s0 17.067 0 17.067c0 8.533-8.533 12.8-17.067 17.067 0 0-8.533 0-17.067 0-12.8 0-29.867 0-51.2 0h-238.933c-25.6 0-38.4 0-51.2 0s-17.067 0-17.067 0c-8.533 0-12.8-8.533-17.067-17.067 0 0 0-8.533 0-17.067 0-12.8 0-29.867 0-51.2v-76.8zM213.333 533.333c-12.8 0-17.067 0-17.067 0-8.533 0-12.8-8.533-17.067-17.067 0 0 0-8.533 0-17.067 0-12.8 0-29.867 0-51.2v-238.933c0-25.6 0-38.4 0-51.2s0-17.067 0-17.067c0-8.533 8.533-12.8 17.067-17.067 0 0 4.267 0 17.067 0s29.867 0 51.2 0h238.933c25.6 0 38.4 0 51.2 0s17.067 0 17.067 0c8.533 0 12.8 8.533 17.067 17.067 0 0 0 4.267 0 17.067s0 29.867 0 51.2v238.933c0 25.6 0 38.4 0 51.2s0 17.067 0 17.067c0 8.533-8.533 12.8-17.067 17.067 0 0-8.533 0-17.067 0-12.8 0-29.867 0-51.2 0h-238.933c-25.6 0-38.4 0-51.2 0z" />
<glyph unicode="&#xe927;" glyph-name="dark-mode1" d="M512 21.333c-235.264 0-426.667 191.403-426.667 426.667 0 189.355 121.685 353.493 302.763 408.363 15.147 4.565 31.403 0.469 42.539-10.667s15.232-27.52 10.667-42.581c-9.728-31.957-14.635-65.323-14.635-99.157 0-188.203 153.131-341.333 341.333-341.333 33.92 0 67.285 4.907 99.157 14.592 15.019 4.565 31.403 0.469 42.539-10.667s15.232-27.477 10.667-42.539c-54.869-181.077-219.008-302.72-408.363-302.72zM343.253 744.619c-104.363-59.904-172.587-173.227-172.587-296.661 0-188.203 153.131-341.333 341.333-341.333 123.477 0 236.757 68.224 296.661 172.544-13.44-1.237-27.051-1.877-40.661-1.877-235.264 0-426.667 191.403-426.667 426.667 0 13.611 0.64 27.179 1.92 40.661z" />
<glyph unicode="&#xe928;" glyph-name="design1" d="M757.589 2.688c-10.667 0-21.419 2.731-31.317 8.235l-214.613 120.192-214.656-120.149c-22.016-12.416-48.427-10.795-68.864 4.053s-30.080 39.467-25.173 64.213l47.915 241.365-180.565 166.997s0 0-0.085 0.043c-18.517 17.152-25.131 42.752-17.28 66.773 7.808 23.979 28.245 40.747 53.291 43.733l244.309 28.971 103.040 223.403c10.581 22.955 32.896 37.205 58.112 37.205s47.531-14.251 58.112-37.205l103.040-223.403 244.309-28.971c25.045-2.987 45.44-19.755 53.291-43.776 7.808-24.021 1.109-49.621-17.365-66.731l-180.608-167.083 47.915-241.28c4.907-24.789-4.693-49.408-25.131-64.256-11.307-8.192-24.363-12.373-37.589-12.373zM511.659 219.648c10.709 0 21.419-2.688 31.147-8.149l184.789-103.467-41.259 207.659c-4.395 21.632 3.029 44.459 19.285 59.477l155.435 143.744-210.261 24.917c-21.973 2.603-41.387 16.725-50.603 36.864l-88.619 192.128-88.661-192.256c-9.131-20.011-28.544-34.133-50.603-36.736l-210.261-24.917 155.477-143.744c16.256-15.104 23.595-37.931 19.243-59.563l-41.216-207.573 184.747 103.424c9.771 5.461 20.523 8.192 31.275 8.192zM259.541 312.576v0zM345.472 616.277s0-0.085 0-0.128v0.128zM677.76 616.405v-0.085s0 0.043 0 0.085z" />
<glyph unicode="&#xe929;" glyph-name="Double_Quotes_R" d="M281.6 704s0 0 0 0h76.8s0 0 0 0c12.8 0 21.333 0 29.867 0s21.333 0 34.133-8.533c17.067-8.533 29.867-21.333 38.4-38.4 4.267-12.8 8.533-21.333 8.533-34.133 0-8.533 0-21.333 0-29.867v0-230.4c0-93.867-76.8-170.667-170.667-170.667s-42.667 17.067-42.667 42.667 17.067 42.667 42.667 42.667c46.933 0 85.333 38.4 85.333 85.333v42.667h-102.4s0 0 0 0v0c-12.8 0-21.333 0-29.867 0s-21.333 0-34.133 8.533c-17.067 8.533-29.867 21.333-38.4 38.4l38.4 21.333zM217.6 469.333l-38.4-21.333c-4.267 12.8-8.533 21.333-8.533 34.133 0 8.533 0 21.333 0 29.867 0 0 0 0 0 0v76.8s0 0 0 0c0 12.8 0 21.333 0 29.867s0 21.333 8.533 34.133c8.533 17.067 21.333 29.867 38.4 38.4 12.8 4.267 21.333 8.533 34.133 8.533 8.533 0 21.333 0 29.867 0zM384 490.667v102.4c0 12.8 0 21.333 0 25.6 0 0 0 0 0 0s0 0 0 0c-4.267 0-12.8 0-25.6 0h-76.8c-12.8 0-21.333 0-25.6 0 0 0 0 0 0 0s0 0 0 0c0-4.267 0-12.8 0-25.6v-76.8c0-12.8 0-21.333 0-25.6 0 0 0 0 0 0s0 0 0 0c4.267 0 12.8 0 25.6 0h102.4zM665.6 704h81.067c12.8 0 21.333 0 29.867 0s21.333 0 34.133-8.533c17.067-8.533 29.867-21.333 38.4-38.4 4.267-12.8 8.533-21.333 8.533-34.133 0-8.533 0-21.333 0-29.867v-230.4c0-93.867-76.8-170.667-170.667-170.667s-42.667 17.067-42.667 42.667 17.067 42.667 42.667 42.667c46.933 0 85.333 38.4 85.333 85.333v42.667h-102.4c-12.8 0-21.333 0-29.867 0s-21.333 0-34.133 8.533c-17.067 8.533-29.867 21.333-38.4 38.4-4.267 12.8-8.533 21.333-8.533 34.133 0 8.533 0 21.333 0 29.867v0 76.8c0 12.8 0 21.333 0 29.867s0 21.333 8.533 34.133c8.533 17.067 21.333 29.867 38.4 38.4 12.8 4.267 21.333 8.533 34.133 8.533 8.533 0 21.333 0 29.867 0zM640 618.667s0 0 0 0c0-4.267 0-12.8 0-25.6v-76.8c0-12.8 0-21.333 0-25.6 0 0 0 0 0 0s0 0 0 0c4.267 0 12.8 0 25.6 0h102.4s0 102.4 0 102.4c0 12.8 0 21.333 0 25.6 0 0 0 0 0 0s0 0 0 0c-4.267 0-12.8 0-25.6 0h-76.8c-12.8 0-21.333 0-25.6 0 0 0 0 0 0 0z" />
<glyph unicode="&#xe92a;" glyph-name="double-arrow-down1" d="M512 192c-10.923 0-21.845 4.181-30.165 12.501l-170.667 170.667c-16.683 16.683-16.683 43.648 0 60.331s43.648 16.683 60.331 0l140.501-140.501 140.501 140.501c16.683 16.683 43.648 16.683 60.331 0s16.683-43.648 0-60.331l-170.667-170.667c-8.32-8.32-19.243-12.501-30.165-12.501zM512 448c-10.923 0-21.845 4.181-30.165 12.501l-170.667 170.667c-16.683 16.683-16.683 43.648 0 60.331s43.648 16.683 60.331 0l140.501-140.501 140.501 140.501c16.683 16.683 43.648 16.683 60.331 0s16.683-43.648 0-60.331l-170.667-170.667c-8.32-8.32-19.243-12.501-30.165-12.501z" />
<glyph unicode="&#xe92b;" glyph-name="double-arrow-left1" d="M725.333 234.667c-10.923 0-21.845 4.181-30.165 12.501l-170.667 170.667c-16.683 16.683-16.683 43.648 0 60.331l170.667 170.667c16.683 16.683 43.648 16.683 60.331 0s16.683-43.648 0-60.331l-140.501-140.501 140.501-140.501c16.683-16.683 16.683-43.648 0-60.331-8.32-8.32-19.243-12.501-30.165-12.501zM469.333 234.667c-10.923 0-21.845 4.181-30.165 12.501l-170.667 170.667c-16.683 16.683-16.683 43.648 0 60.331l170.667 170.667c16.683 16.683 43.648 16.683 60.331 0s16.683-43.648 0-60.331l-140.501-140.501 140.501-140.501c16.683-16.683 16.683-43.648 0-60.331-8.32-8.32-19.243-12.501-30.165-12.501z" />
<glyph unicode="&#xe92c;" glyph-name="double-arrow-right1" d="M554.667 234.667c-10.923 0-21.845 4.181-30.165 12.501-16.683 16.683-16.683 43.648 0 60.331l140.501 140.501-140.501 140.501c-16.683 16.683-16.683 43.648 0 60.331s43.648 16.683 60.331 0l170.667-170.667c16.683-16.683 16.683-43.648 0-60.331l-170.667-170.667c-8.32-8.32-19.243-12.501-30.165-12.501zM298.667 234.667c-10.923 0-21.845 4.181-30.165 12.501-16.683 16.683-16.683 43.648 0 60.331l140.501 140.501-140.501 140.501c-16.683 16.683-16.683 43.648 0 60.331s43.648 16.683 60.331 0l170.667-170.667c16.683-16.683 16.683-43.648 0-60.331l-170.667-170.667c-8.32-8.32-19.243-12.501-30.165-12.501z" />
<glyph unicode="&#xe92d;" glyph-name="double-arrow-up1" d="M682.667 192c-10.923 0-21.845 4.181-30.165 12.501l-140.501 140.501-140.501-140.501c-16.683-16.683-43.648-16.683-60.331 0s-16.683 43.648 0 60.331l170.667 170.667c16.683 16.683 43.648 16.683 60.331 0l170.667-170.667c16.683-16.683 16.683-43.648 0-60.331-8.32-8.32-19.243-12.501-30.165-12.501zM682.667 448c-10.923 0-21.845 4.181-30.165 12.501l-140.501 140.501-140.501-140.501c-16.683-16.683-43.648-16.683-60.331 0s-16.683 43.648 0 60.331l170.667 170.667c16.683 16.683 43.648 16.683 60.331 0l170.667-170.667c16.683-16.683 16.683-43.648 0-60.331-8.32-8.32-19.243-12.501-30.165-12.501z" />
<glyph unicode="&#xe92e;" glyph-name="Download" d="M512 874.667c25.6 0 42.667-17.067 42.667-42.667v-494.933l140.8 140.8c17.067 17.067 42.667 17.067 59.733 0s17.067-42.667 0-59.733l-213.333-213.333c-17.067-17.067-42.667-17.067-59.733 0l-213.333 213.333c-17.067 17.067-17.067 42.667 0 59.733s42.667 17.067 59.733 0l140.8-140.8v494.933c0 25.6 17.067 42.667 42.667 42.667zM213.333 64c0 25.6 17.067 42.667 42.667 42.667h512c25.6 0 42.667-17.067 42.667-42.667s-17.067-42.667-42.667-42.667h-512c-25.6 0-42.667 17.067-42.667 42.667z" />
<glyph unicode="&#xe92f;" glyph-name="draft1" d="M512 21.376c-235.264 0-426.667 191.403-426.667 426.667s191.403 426.667 426.667 426.667 426.667-191.403 426.667-426.667-191.403-426.667-426.667-426.667zM512 789.376c-188.203 0-341.333-153.131-341.333-341.333s153.131-341.333 341.333-341.333 341.333 153.131 341.333 341.333-153.131 341.333-341.333 341.333zM640 277.376c-10.923 0-21.845 4.181-30.165 12.501l-97.835 97.835-97.835-97.835c-16.683-16.683-43.648-16.683-60.331 0s-16.683 43.648 0 60.331l97.835 97.835-97.835 97.835c-16.683 16.683-16.683 43.648 0 60.331s43.648 16.683 60.331 0l97.835-97.835 97.835 97.835c16.683 16.683 43.648 16.683 60.331 0s16.683-43.648 0-60.331l-97.835-97.835 97.835-97.835c16.683-16.683 16.683-43.648 0-60.331-8.32-8.32-19.243-12.501-30.165-12.501z" />
<glyph unicode="&#xe930;" glyph-name="drag1" d="M640 106.709c-47.061 0-85.333 38.272-85.333 85.333s38.272 85.333 85.333 85.333 85.333-38.272 85.333-85.333-38.272-85.333-85.333-85.333zM640 192v0zM640 192v0zM640 192v0zM640 192v0zM640 192v0zM640 192.043v0zM640 192.043v0zM640 192.043v0zM384 106.709c-47.061 0-85.333 38.272-85.333 85.333s38.272 85.333 85.333 85.333 85.333-38.272 85.333-85.333-38.272-85.333-85.333-85.333zM384 192v0zM384 192v0zM384 192v0zM384 192v0zM384 192v0zM384 192.043v0zM384 192.043v0zM384 192.043v0zM640 362.709c-47.061 0-85.333 38.272-85.333 85.333s38.272 85.333 85.333 85.333 85.333-38.272 85.333-85.333-38.272-85.333-85.333-85.333zM640 448v0zM640 448v0zM640 448v0zM640 448v0zM640 448v0zM640 448.043v0zM640 448.043v0zM640 448.043v0zM384 362.709c-47.061 0-85.333 38.272-85.333 85.333s38.272 85.333 85.333 85.333 85.333-38.272 85.333-85.333-38.272-85.333-85.333-85.333zM384 448v0zM384 448v0zM384 448v0zM384 448v0zM384 448v0zM384 448.043v0zM384 448.043v0zM384 448.043v0zM640 618.709c-47.061 0-85.333 38.272-85.333 85.333s38.272 85.333 85.333 85.333 85.333-38.272 85.333-85.333-38.272-85.333-85.333-85.333zM640 704v0zM640 704v0zM640 704v0zM640 704v0zM640 704v0zM640 704.043v0zM640 704.043v0zM640 704.043v0zM384 618.709c-47.061 0-85.333 38.272-85.333 85.333s38.272 85.333 85.333 85.333 85.333-38.272 85.333-85.333-38.272-85.333-85.333-85.333zM384 704v0zM384 704v0zM384 704v0zM384 704v0zM384 704v0zM384 704.043v0zM384 704.043v0zM384 704.043v0z" />
<glyph unicode="&#xe931;" glyph-name="Folder_Add" d="M529.067 746.667l-34.133 34.133s0 0 0 0c-12.8 12.8-21.333 21.333-34.133 29.867s-25.6 12.8-38.4 17.067c-12.8 0-29.867 0-46.933 0 0 0 0 0 0 0h-157.867c-72.533 0-128-55.467-128-128v-460.8c0-21.333 0-42.667 0-59.733s4.267-34.133 12.8-51.2c12.8-25.6 29.867-42.667 55.467-55.467 17.067-8.533 34.133-12.8 51.2-12.8s34.133 0 59.733 0h499.2c21.333 0 42.667 0 59.733 0s34.133 4.267 51.2 12.8c25.6 12.8 42.667 29.867 55.467 55.467 8.533 17.067 12.8 34.133 12.8 51.2s0 34.133 0 59.733v328.533c0 21.333 0 42.667 0 59.733s-4.267 34.133-12.8 51.2c-12.8 25.6-29.867 42.667-55.467 55.467-17.067 8.533-34.133 12.8-51.2 12.8s-34.133 0-59.733 0h-230.4zM170.667 661.333v-418.133c0-25.6 0-38.4 0-51.2s0-17.067 0-17.067c0-8.533 8.533-12.8 17.067-17.067 0 0 4.267 0 17.067 0s29.867 0 51.2 0h494.933c25.6 0 38.4 0 51.2 0s17.067 0 17.067 0c8.533 0 12.8 8.533 17.067 17.067 0 0 0 8.533 0 17.067 0 12.8 0 29.867 0 51.2v324.267c0 25.6 0 38.4 0 51.2s0 17.067 0 17.067c0 8.533-8.533 12.8-17.067 17.067 0 0-8.533 0-17.067 0-12.8 0-29.867 0-51.2 0h-580.267zM512 576c25.6 0 42.667-17.067 42.667-42.667v-85.333h85.333c25.6 0 42.667-17.067 42.667-42.667s-17.067-42.667-42.667-42.667h-85.333v-85.333c0-25.6-17.067-42.667-42.667-42.667s-42.667 17.067-42.667 42.667v85.333h-85.333c-25.6 0-42.667 17.067-42.667 42.667s17.067 42.667 42.667 42.667h85.333v85.333c0 25.6 17.067 42.667 42.667 42.667z" />
<glyph unicode="&#xe932;" glyph-name="Font" d="M341.333 746.667c17.067 0 34.133-8.533 38.4-25.6l213.333-512c8.533-21.333 0-46.933-21.333-55.467s-46.933 0-55.467 21.333l-59.733 145.067h-226.133l-59.733-145.067c-8.533-21.333-34.133-34.133-55.467-21.333s-34.133 34.133-21.333 55.467l209.067 512c8.533 17.067 21.333 25.6 38.4 25.6zM264.533 405.333h157.867l-76.8 187.733-76.8-187.733zM768 405.333c-46.933 0-85.333-38.4-85.333-85.333s38.4-85.333 85.333-85.333 85.333 38.4 85.333 85.333-38.4 85.333-85.333 85.333zM857.6 465.067c-25.6 17.067-55.467 25.6-89.6 25.6-93.867 0-170.667-76.8-170.667-170.667s76.8-170.667 170.667-170.667 64 8.533 89.6 25.6c8.533-12.8 21.333-25.6 38.4-25.6s42.667 17.067 42.667 42.667v256c0 25.6-17.067 42.667-42.667 42.667s-34.133-8.533-38.4-25.6z" />
<glyph unicode="&#xe933;" glyph-name="Checkbox_Check" d="M307.2 832h413.867c21.333 0 42.667 0 59.733 0s34.133-4.267 51.2-12.8c25.6-12.8 42.667-29.867 55.467-55.467 8.533-17.067 12.8-34.133 12.8-51.2s0-34.133 0-59.733v-413.867c0-21.333 0-42.667 0-59.733s-4.267-34.133-12.8-51.2c-12.8-25.6-29.867-42.667-55.467-55.467-17.067-8.533-34.133-12.8-51.2-12.8s-34.133 0-59.733 0h-413.867c-21.333 0-42.667 0-59.733 0s-34.133 4.267-51.2 12.8c-25.6 12.8-42.667 29.867-55.467 55.467-8.533 17.067-12.8 34.133-12.8 51.2s0 34.133 0 59.733v413.867c0 21.333 0 42.667 0 59.733s4.267 34.133 12.8 51.2c12.8 25.6 29.867 42.667 55.467 55.467 17.067 8.533 34.133 12.8 51.2 12.8s34.133 0 59.733 0zM256 746.667c-12.8 0-17.067 0-17.067 0-8.533 0-12.8-8.533-17.067-17.067 0 0 0-8.533 0-17.067 0-12.8 0-29.867 0-51.2v-409.6c0-25.6 0-38.4 0-51.2s0-17.067 0-17.067c0-8.533 8.533-12.8 17.067-17.067 0 0 4.267 0 17.067 0s29.867 0 51.2 0h409.6c25.6 0 38.4 0 51.2 0s17.067 0 17.067 0c8.533 0 12.8 8.533 17.067 17.067 0 0 0 4.267 0 17.067s0 29.867 0 51.2v401.067c0 25.6 0 38.4 0 51.2s0 17.067 0 17.067c0 8.533-8.533 12.8-17.067 17.067 0 0-8.533 0-17.067 0-12.8 0-29.867 0-51.2 0h-409.6c-25.6 0-38.4 0-51.2 0zM708.267 610.133c17.067-17.067 21.333-42.667 4.267-59.733l-213.333-256c-8.533-8.533-17.067-12.8-29.867-17.067-12.8 0-25.6 0-34.133 12.8l-128 128c-17.067 17.067-17.067 42.667 0 59.733s42.667 17.067 59.733 0l93.867-93.867 183.467 221.867c17.067 17.067 42.667 21.333 59.733 4.267z" />
<glyph unicode="&#xe934;" glyph-name="Image_02" d="M264.533 874.667h499.2c21.333 0 42.667 0 59.733 0s34.133-4.267 51.2-12.8c25.6-12.8 42.667-29.867 55.467-55.467 8.533-17.067 12.8-34.133 12.8-51.2s0-34.133 0-59.733v-499.2c0-17.067 0-29.867 0-42.667 0-4.267 0-12.8 0-17.067 0-17.067-4.267-29.867-12.8-46.933-12.8-25.6-29.867-42.667-55.467-55.467-17.067-8.533-34.133-12.8-51.2-12.8s-34.133 0-59.733 0h-499.2c-21.333 0-42.667 0-59.733 0s-34.133 4.267-51.2 12.8c-25.6 12.8-42.667 29.867-55.467 55.467-8.533 17.067-12.8 29.867-12.8 46.933s0 34.133 0 55.467v503.467c0 21.333 0 42.667 0 59.733s4.267 34.133 12.8 51.2c12.8 25.6 29.867 42.667 55.467 55.467 17.067 8.533 34.133 12.8 51.2 12.8s34.133 0 59.733 0zM853.333 273.067v422.4c0 25.6 0 38.4 0 51.2s0 17.067 0 17.067c0 8.533-8.533 12.8-17.067 17.067 0 0-8.533 0-17.067 0-12.8 0-29.867 0-51.2 0h-503.467c-25.6 0-38.4 0-51.2 0s-17.067 0-17.067 0c-8.533 0-12.8-8.533-17.067-17.067 0 0 0-8.533 0-17.067 0-12.8 0-29.867 0-51.2v-388.267l128 149.333s0 0 0 0c0 0 0 0 0 0 8.533 8.533 17.067 17.067 21.333 25.6 8.533 8.533 17.067 17.067 29.867 21.333 17.067 8.533 38.4 8.533 59.733 0 12.8-4.267 25.6-12.8 29.867-21.333 8.533-8.533 12.8-17.067 21.333-25.6l115.2-136.533c8.533-8.533 12.8-17.067 17.067-21.333 0 0 0 0 0 0s0 0 0 0 8.533 8.533 21.333 17.067l21.333 21.333c8.533 8.533 17.067 17.067 25.6 21.333 8.533 8.533 17.067 12.8 29.867 17.067 17.067 4.267 38.4 0 55.467 0 12.8-4.267 21.333-12.8 29.867-21.333s12.8-17.067 21.333-25.6l46.933-59.733zM170.667 174.933c0-12.8 0-21.333 0-29.867s0-12.8 0-17.067 8.533-12.8 17.067-17.067c0 0 4.267 0 17.067 0s29.867 0 51.2 0h494.933c25.6 0 38.4 0 51.2 0s17.067 0 17.067 0c8.533 0 12.8 8.533 17.067 17.067 0 0 0 0 0 8.533l-110.933 140.8c-8.533 12.8-12.8 17.067-17.067 21.333 0 0 0 0 0 0s0 0 0 0c-4.267 0-8.533-8.533-21.333-17.067l-21.333-21.333c-8.533-8.533-17.067-17.067-25.6-21.333-8.533-8.533-17.067-12.8-29.867-17.067-17.067-4.267-38.4-4.267-55.467 0-12.8 4.267-21.333 12.8-29.867 21.333s-12.8 17.067-21.333 25.6l-115.2 136.533c-8.533 12.8-12.8 17.067-17.067 21.333 0 0 0 0 0 0s0 0 0 0-8.533-8.533-17.067-21.333c0 0 0 0 0 0l-192-226.133zM554.667 618.667c0 46.933 38.4 85.333 85.333 85.333s85.333-38.4 85.333-85.333-38.4-85.333-85.333-85.333-85.333 38.4-85.333 85.333z" />
<glyph unicode="&#xe935;" glyph-name="language1" d="M511.573 21.333c-235.264 0-426.667 191.403-426.667 426.667s191.445 426.667 426.667 426.667 426.667-191.403 426.667-426.667-191.403-426.667-426.667-426.667zM384.683 405.333c9.429-183.68 78.379-298.667 126.933-298.667s117.504 114.987 126.933 298.667h-253.824zM723.968 405.333c-4.736-104.491-26.752-195.755-60.715-263.083 100.181 49.877 172.544 147.627 187.008 263.083h-126.293zM172.928 405.333c14.464-115.456 86.827-213.205 187.008-263.083-33.963 67.328-55.979 158.592-60.715 263.083h-126.293zM723.968 490.667h126.293c-14.464 115.456-86.827 213.205-187.008 263.083 33.963-67.328 55.979-158.592 60.715-263.083zM384.683 490.667h253.824c-9.429 183.68-78.379 298.667-126.933 298.667s-117.504-114.987-126.933-298.667zM172.928 490.667h126.293c4.736 104.491 26.752 195.755 60.715 263.083-100.181-49.877-172.544-147.627-187.008-263.083z" />
<glyph unicode="&#xe936;" glyph-name="last-edit-date1" d="M716.928 64.043h-409.813c-52.779 0-81.877 0-109.227 13.952-24.192 12.331-43.52 31.659-55.936 55.893-13.952 27.435-13.952 56.533-13.952 109.355v409.6c0 52.821 0 81.963 13.909 109.312 12.373 24.235 31.701 43.563 55.979 55.936 25.856 13.227 53.291 13.909 100.779 13.952v42.667c0 23.552 19.072 42.667 42.667 42.667s42.667-19.115 42.667-42.667v-42.667h256v42.667c0 23.552 19.072 42.667 42.667 42.667s42.667-19.115 42.667-42.667v-42.667c47.488 0 74.923-0.768 100.736-13.952 24.235-12.373 43.605-31.701 55.979-55.936 13.952-27.349 13.952-56.405 13.952-109.227v-409.856c0-52.736 0-81.792-13.909-109.184-12.416-24.235-31.787-43.563-55.979-55.936-27.349-13.952-56.363-13.952-109.184-13.952zM213.333 576.043v-332.8c0-36.992 0-61.44 4.651-70.571 4.096-8.064 10.581-14.549 18.645-18.688 9.088-4.608 33.493-4.608 70.443-4.608h409.813c36.907 0 61.355 0 70.4 4.608 8.064 4.139 14.592 10.624 18.688 18.688 4.608 9.088 4.608 33.451 4.608 70.357v332.971h-597.248zM213.333 661.376h597.333c0 32.256-0.384 53.675-4.608 62.037-4.139 8.021-10.581 14.507-18.688 18.688-9.088 4.608-33.536 4.608-70.528 4.608h-409.6c-36.992 0-61.44 0-70.571-4.651-8.064-4.096-14.549-10.539-18.688-18.645-4.267-8.363-4.565-29.781-4.608-62.037zM682.752 234.624c-10.923 0-21.845 4.181-30.165 12.501s-12.501 19.243-12.501 30.165c0 10.965 4.139 21.888 12.459 30.208 16.683 16.683 43.605 16.725 60.288 0l0.085-0.085c8.32-8.32 12.501-19.243 12.501-30.165s-4.181-21.845-12.501-30.165-19.243-12.501-30.165-12.501zM512.085 234.624c-10.923 0-21.845 4.181-30.165 12.501s-12.501 19.243-12.501 30.165c0 10.965 4.139 21.888 12.459 30.208 16.683 16.683 43.605 16.725 60.288 0l0.085-0.085c8.32-8.32 12.501-19.243 12.501-30.165s-4.181-21.845-12.501-30.165-19.243-12.501-30.165-12.501zM341.419 234.624c-10.923 0-21.845 4.181-30.165 12.501s-12.501 19.243-12.501 30.165c0 10.965 4.139 21.888 12.459 30.208 16.683 16.683 43.605 16.725 60.288 0l0.085-0.085c8.32-8.32 12.501-19.243 12.501-30.165s-4.181-21.845-12.501-30.165-19.243-12.501-30.165-12.501zM682.667 405.291c-10.923 0-21.845 4.181-30.165 12.501s-12.501 19.243-12.501 30.165 4.181 21.845 12.501 30.165c16.683 16.683 43.691 16.725 60.373 0 8.32-8.32 12.501-19.243 12.501-30.123 0-10.923-4.139-21.845-12.459-30.165l-0.085-0.085c-8.32-8.32-19.243-12.501-30.165-12.501zM512.085 405.291c-10.923 0-21.845 4.181-30.165 12.501s-12.501 19.243-12.501 30.165c0 10.965 4.139 21.888 12.459 30.208 16.683 16.683 43.605 16.725 60.288 0l0.085-0.085c8.32-8.32 12.501-19.243 12.501-30.165s-4.181-21.845-12.501-30.165-19.243-12.501-30.165-12.501zM341.419 405.291c-10.923 0-21.845 4.181-30.165 12.501s-12.501 19.243-12.501 30.165c0 10.965 4.139 21.888 12.459 30.208 16.683 16.683 43.605 16.725 60.288 0l0.085-0.085c8.32-8.32 12.501-19.243 12.501-30.165s-4.181-21.845-12.501-30.165-19.243-12.501-30.165-12.501z" />
<glyph unicode="&#xe937;" glyph-name="last-edit-user1" d="M768 106.709c-23.552 0-42.667 19.072-42.667 42.667 0 69.376-97.707 128-213.333 128s-213.333-58.624-213.333-128c0-23.595-19.115-42.667-42.667-42.667s-42.667 19.072-42.667 42.667c0 119.637 131.2 213.333 298.667 213.333s298.667-93.696 298.667-213.333c0-23.595-19.115-42.667-42.667-42.667zM512 405.376c-117.632 0-213.333 95.701-213.333 213.333s95.701 213.333 213.333 213.333 213.333-95.701 213.333-213.333-95.701-213.333-213.333-213.333zM512 746.709c-70.571 0-128-57.429-128-128s57.429-128 128-128 128 57.429 128 128-57.429 128-128 128z" />
<glyph unicode="&#xe938;" glyph-name="Layer" d="M486.4 823.467c12.8 8.533 34.133 8.533 46.933 0l384-256c12.8-8.533 17.067-21.333 17.067-34.133s-8.533-25.6-17.067-34.133l-384-256c-12.8-8.533-34.133-8.533-46.933 0l-384 256c-12.8 8.533-17.067 21.333-17.067 34.133s8.533 25.6 17.067 34.133l384 256zM204.8 533.333l307.2-204.8 307.2 204.8-307.2 204.8-307.2-204.8zM93.867 388.267c12.8 21.333 38.4 25.6 59.733 12.8l358.4-238.933 358.4 238.933c21.333 12.8 46.933 8.533 59.733-12.8s8.533-46.933-12.8-59.733l-384-256c-12.8-8.533-34.133-8.533-46.933 0l-384 256c-21.333 12.8-25.6 38.4-12.8 59.733z" />
<glyph unicode="&#xe939;" glyph-name="Layers" d="M486.4 908.8c12.8 8.533 34.133 8.533 46.933 0l384-256c12.8-8.533 17.067-21.333 17.067-34.133s-8.533-25.6-17.067-34.133l-384-256c-12.8-8.533-34.133-8.533-46.933 0l-384 256c-12.8 8.533-17.067 21.333-17.067 34.133s8.533 25.6 17.067 34.133l384 256zM204.8 618.667l307.2-204.8 307.2 204.8-307.2 204.8-307.2-204.8zM93.867 473.6c12.8 21.333 38.4 25.6 59.733 12.8l358.4-238.933 358.4 238.933c21.333 12.8 46.933 8.533 59.733-12.8s8.533-46.933-12.8-59.733l-384-256c-12.8-8.533-34.133-8.533-46.933 0l-384 256c-21.333 12.8-25.6 38.4-12.8 59.733zM93.867 302.933c12.8 21.333 38.4 25.6 59.733 12.8l358.4-238.933 358.4 238.933c21.333 12.8 46.933 8.533 59.733-12.8s8.533-46.933-12.8-59.733l-384-256c-12.8-8.533-34.133-8.533-46.933 0l-384 256c-21.333 12.8-25.6 38.4-12.8 59.733z" />
<glyph unicode="&#xe93a;" glyph-name="light-mode1" d="M512-21.333c-23.595 0-42.667 19.115-42.667 42.667v85.333c0 23.552 19.072 42.667 42.667 42.667s42.667-19.115 42.667-42.667v-85.333c0-23.552-19.072-42.667-42.667-42.667zM816.725 100.608c-10.923 0-21.845 4.181-30.165 12.501l-60.331 60.331c-16.683 16.683-16.683 43.648 0 60.331s43.648 16.683 60.331 0l60.331-60.331c16.683-16.683 16.683-43.648 0-60.331-8.32-8.32-19.243-12.501-30.165-12.501zM213.333 100.608c-10.923 0-21.845 4.181-30.165 12.501-16.683 16.683-16.683 43.691 0 60.373l60.373 60.331c16.683 16.64 43.648 16.64 60.331 0s16.683-43.691 0-60.373l-60.373-60.331c-8.32-8.32-19.243-12.459-30.165-12.459zM512 192c-141.184 0-256 114.816-256 256s114.816 256 256 256 256-114.816 256-256-114.816-256-256-256zM512 618.667c-94.123 0-170.667-76.544-170.667-170.667s76.544-170.667 170.667-170.667 170.667 76.544 170.667 170.667-76.544 170.667-170.667 170.667zM938.667 405.333h-85.333c-23.595 0-42.667 19.115-42.667 42.667s19.072 42.667 42.667 42.667h85.333c23.595 0 42.667-19.115 42.667-42.667s-19.072-42.667-42.667-42.667zM170.667 405.333h-85.333c-23.595 0-42.667 19.115-42.667 42.667s19.072 42.667 42.667 42.667h85.333c23.595 0 42.667-19.115 42.667-42.667s-19.072-42.667-42.667-42.667zM756.437 643.669c-10.923 0-21.845 4.181-30.165 12.501-16.683 16.683-16.683 43.648 0 60.331l60.331 60.331c16.683 16.683 43.648 16.683 60.331 0s16.683-43.648 0-60.331l-60.331-60.331c-8.32-8.32-19.243-12.501-30.165-12.501zM273.664 643.669c-10.923 0-21.845 4.181-30.165 12.501l-60.331 60.331c-16.683 16.683-16.683 43.648 0 60.331s43.648 16.683 60.331 0l60.331-60.331c16.683-16.683 16.683-43.648 0-60.331-8.32-8.32-19.243-12.501-30.165-12.501zM512 746.667c-23.595 0-42.667 19.115-42.667 42.667v85.333c0 23.552 19.072 42.667 42.667 42.667s42.667-19.115 42.667-42.667v-85.333c0-23.552-19.072-42.667-42.667-42.667z" />
<glyph unicode="&#xe93b;" glyph-name="Link" d="M755.2 691.2c-51.2 51.2-132.267 51.2-179.2 0l-59.733-59.733c-17.067-17.067-42.667-17.067-59.733 0s-17.067 42.667 0 59.733l59.733 59.733c85.333 85.333 217.6 85.333 302.933 0s85.333-217.6 0-302.933l-59.733-59.733c-17.067-17.067-42.667-17.067-59.733 0s-17.067 42.667 0 59.733l59.733 59.733c51.2 51.2 51.2 132.267 0 179.2zM661.333 597.333c17.067-17.067 17.067-42.667 0-59.733l-243.2-243.2c-17.067-17.067-42.667-17.067-59.733 0s-17.067 42.667 0 59.733l243.2 243.2c17.067 17.067 42.667 17.067 59.733 0zM332.8 507.733c17.067-17.067 17.067-42.667 0-59.733l-59.733-59.733c-51.2-51.2-51.2-132.267 0-179.2 51.2-51.2 132.267-51.2 179.2 0 0 0 0 0 0 0l59.733 59.733c17.067 17.067 42.667 17.067 59.733 0s17.067-42.667 0-59.733l-59.733-59.733c-85.333-85.333-217.6-85.333-302.933 0s-85.333 217.6 0 302.933l59.733 59.733c17.067 17.067 42.667 17.067 59.733 0z" />
<glyph unicode="&#xe93c;" glyph-name="List_Ordered" d="M277.333 823.467c-12.8 4.267-29.867 8.533-42.667 0l-85.333-42.667c-17.067-8.533-25.6-34.133-17.067-55.467 8.533-17.067 34.133-25.6 55.467-17.067l25.6 12.8v-187.733c0-25.6 17.067-42.667 42.667-42.667s42.667 17.067 42.667 42.667v256c0 17.067-8.533 29.867-21.333 38.4zM384 661.333c0 25.6 17.067 42.667 42.667 42.667h426.667c25.6 0 42.667-17.067 42.667-42.667s-17.067-42.667-42.667-42.667h-426.667c-25.6 0-42.667 17.067-42.667 42.667zM384 448c0 25.6 17.067 42.667 42.667 42.667h426.667c25.6 0 42.667-17.067 42.667-42.667s-17.067-42.667-42.667-42.667h-426.667c-25.6 0-42.667 17.067-42.667 42.667zM234.667 320c-12.8 0-21.333-8.533-21.333-21.333v-8.533c0-25.6-17.067-42.667-42.667-42.667s-42.667 17.067-42.667 42.667v8.533c0 59.733 46.933 106.667 106.667 106.667v0c59.733 0 106.667-46.933 106.667-106.667s-8.533-46.933-21.333-68.267v0l-64-85.333h42.667c25.6 0 42.667-17.067 42.667-42.667s-17.067-42.667-42.667-42.667h-128c-17.067 0-29.867 8.533-38.4 25.6-8.533 12.8-4.267 29.867 0 42.667l115.2 153.6c0 4.267 4.267 8.533 4.267 17.067 0 12.8-8.533 21.333-21.333 21.333v0zM384 234.667c0 25.6 17.067 42.667 42.667 42.667h426.667c25.6 0 42.667-17.067 42.667-42.667s-17.067-42.667-42.667-42.667h-426.667c-25.6 0-42.667 17.067-42.667 42.667z" />
<glyph unicode="&#xe93d;" glyph-name="Map" d="M917.333 870.4c12.8-8.533 21.333-21.333 21.333-38.4v-640c0-17.067-8.533-29.867-25.6-38.4l-256-128c-12.8-4.267-25.6-4.267-38.4 0l-238.933 119.467-238.933-119.467c-12.8-8.533-29.867-4.267-42.667 0-12.8 8.533-21.333 21.333-21.333 38.4v640c0 17.067 8.533 29.867 25.6 38.4l256 128c12.8 4.267 25.6 4.267 38.4 0l238.933-119.467 238.933 119.467c12.8 8.533 29.867 4.267 42.667 0zM597.333 678.4l-170.667 85.333v-546.133l170.667-85.333v546.133zM682.667 132.267l170.667 85.333v546.133l-170.667-85.333v-546.133zM341.333 217.6v546.133l-170.667-85.333v-546.133l170.667 85.333z" />
<glyph unicode="&#xe93e;" glyph-name="More_Horizontal" d="M170.667 448c0 46.933 38.4 85.333 85.333 85.333s85.333-38.4 85.333-85.333-38.4-85.333-85.333-85.333-85.333 38.4-85.333 85.333zM426.667 448c0 46.933 38.4 85.333 85.333 85.333s85.333-38.4 85.333-85.333-38.4-85.333-85.333-85.333-85.333 38.4-85.333 85.333zM682.667 448c0 46.933 38.4 85.333 85.333 85.333s85.333-38.4 85.333-85.333-38.4-85.333-85.333-85.333-85.333 38.4-85.333 85.333z" />
<glyph unicode="&#xe93f;" glyph-name="page-type1" d="M674.261 21.376h-324.523c-52.779 0-81.835 0-109.184 13.952-24.192 12.331-43.52 31.659-55.893 55.893-13.995 27.435-13.995 56.533-13.995 109.355v494.933c0 52.821 0 81.963 13.952 109.312 12.373 24.235 31.701 43.563 55.936 55.936 27.435 13.952 56.533 13.952 109.355 13.952h204.587s0.299 0 0.469 0c14.165-0.085 25.259-0.725 36.821-3.456 13.269-3.2 25.771-8.363 37.248-15.445 12.843-7.893 22.528-17.579 38.528-33.621l133.333-133.333c16-15.957 25.643-25.6 33.621-38.528 7.083-11.605 12.203-24.021 15.317-37.077 2.731-11.307 3.371-22.059 3.541-36.693v-376.064c0-52.736 0-81.792-13.909-109.184-12.416-24.235-31.744-43.563-55.979-55.936-27.392-13.952-56.448-13.952-109.184-13.952zM349.867 789.376c-37.035 0-61.44 0-70.613-4.651-8.021-4.096-14.507-10.539-18.645-18.645-4.608-9.131-4.608-33.579-4.608-70.571v-494.933c0-36.992 0-61.44 4.651-70.571 4.139-8.064 10.581-14.549 18.688-18.688 9.088-4.608 33.493-4.608 70.4-4.608h324.523c36.907 0 61.312 0 70.4 4.608 8.107 4.139 14.592 10.624 18.731 18.688 4.608 9.088 4.608 33.451 4.608 70.357v332.971h-76.928c-52.779 0-81.835 0-109.184 13.952-24.192 12.331-43.52 31.659-55.893 55.893-13.995 27.435-13.995 56.533-13.995 109.355v76.8h-162.133zM597.333 771.627v-59.051c0-36.992 0-61.44 4.651-70.571 4.139-8.064 10.581-14.549 18.688-18.688 9.088-4.608 33.493-4.608 70.4-4.608h59.221c-2.773 2.816-6.016 6.059-9.728 9.771l-133.333 133.376c-3.755 3.755-6.997 6.997-9.856 9.771z" />
<glyph unicode="&#xe940;" glyph-name="Paper_Plane" d="M622.933 8.533c-12.8 0-21.333 0-34.133 8.533-29.867 12.8-42.667 42.667-72.533 98.133l-110.933 221.867c0 0 0 4.267 0 8.533 0 0 0 0-8.533 0l-221.867 110.933c-55.467 29.867-85.333 42.667-98.133 72.533-8.533 25.6-8.533 55.467 8.533 76.8 17.067 25.6 46.933 38.4 106.667 55.467l567.467 174.933c46.933 12.8 72.533 21.333 102.4 12.8 25.6-8.533 42.667-25.6 51.2-51.2s0-51.2-12.8-98.133c0 0 0 0 0 0l-174.933-567.467c-17.067-59.733-29.867-89.6-55.467-106.667-12.8-8.533-29.867-12.8-46.933-12.8zM618.667 89.6v0zM486.4 362.667l106.667-213.333c8.533-21.333 21.333-42.667 29.867-55.467 4.267 12.8 12.8 34.133 17.067 55.467l174.933 567.467s0 0 0 0c4.267 17.067 12.8 34.133 12.8 42.667-8.533 0-25.6-8.533-42.667-12.8l-567.467-174.933c-21.333-8.533-46.933-12.8-55.467-17.067 12.8-8.533 34.133-17.067 55.467-29.867l213.333-106.667 187.733 187.733c17.067 17.067 42.667 17.067 59.733 0s17.067-42.667 0-59.733l-187.733-187.733zM153.6 554.667v0zM857.6 708.267v0 0z" />
<glyph unicode="&#xe941;" glyph-name="Play" d="M332.8 772.267s0 0 0 0l426.667-226.133s0 0 0 0v0c17.067-8.533 34.133-17.067 42.667-25.6 12.8-8.533 25.6-17.067 34.133-38.4s8.533-46.933 0-72.533c-8.533-17.067-21.333-29.867-34.133-38.4s-25.6-17.067-42.667-25.6l-430.933-230.4c-17.067-8.533-29.867-17.067-42.667-21.333s-29.867-8.533-46.933-8.533c-25.6 0-46.933 17.067-59.733 34.133-8.533 12.8-12.8 29.867-12.8 42.667s0 29.867 0 46.933v465.067c0 17.067 0 34.133 0 46.933s0 29.867 12.8 42.667c12.8 21.333 34.133 34.133 59.733 34.133 17.067 0 34.133 0 46.933-8.533 12.8-4.267 25.6-12.8 42.667-21.333zM256 716.8s0 0 0 0c0-8.533 0-21.333 0-38.4v-456.533c0-21.333 0-29.867 0-38.4 0 0 0 0 0 0s0 0 0 0c8.533 0 17.067 8.533 34.133 17.067l426.667 226.133c17.067 8.533 29.867 17.067 38.4 21.333 0 0 0 0 0 0s0 0 0 0c-8.533 4.267-17.067 12.8-38.4 21.333 0 0 0 0 0 0l-422.4 230.4c-17.067 8.533-25.6 12.8-34.133 17.067 0 0 0 0 0 0z" />
<glyph unicode="&#xe942;" glyph-name="plus1" d="M511.573 149.376c-23.595 0-42.667 19.072-42.667 42.667v213.333h-213.333c-23.595 0-42.667 19.072-42.667 42.667s19.072 42.667 42.667 42.667h213.333v213.333c0 23.595 19.072 42.667 42.667 42.667s42.667-19.072 42.667-42.667v-213.333h213.333c23.595 0 42.667-19.072 42.667-42.667s-19.072-42.667-42.667-42.667h-213.333v-213.333c0-23.595-19.072-42.667-42.667-42.667z" />
<glyph unicode="&#xe943;" glyph-name="preview1" d="M716.544 21.333h-409.899c-52.779 0-81.877 0-109.227 13.952-24.192 12.331-43.52 31.659-55.936 55.851-13.952 27.477-13.952 56.576-13.952 109.397v204.8c0 43.904 0 68.096 9.771 91.648 12.928 31.147 38.187 56.405 69.333 69.291 23.424 9.728 47.616 9.728 91.563 9.728 23.595 0 42.667-19.115 42.667-42.667s-19.072-42.667-42.667-42.667c-30.805 0-51.115 0-58.923-3.243-10.453-4.309-18.859-12.715-23.168-23.125-3.243-7.851-3.243-28.203-3.243-58.965v-204.8c0-37.035 0-61.44 4.651-70.613 4.096-8.021 10.581-14.507 18.645-18.645 9.088-4.608 33.493-4.608 70.443-4.608h409.856c36.907 0 61.312 0 70.4 4.651 8.021 4.096 14.549 10.624 18.688 18.688 4.608 9.045 4.608 33.451 4.608 70.357v204.928c0 30.805 0 51.157-3.243 58.965-4.309 10.411-12.715 18.816-23.083 23.083-7.893 3.285-28.203 3.285-59.008 3.285-23.595 0-42.667 19.115-42.667 42.667s19.072 42.667 42.667 42.667c43.947 0 68.181 0 91.648-9.771 31.104-12.843 56.32-38.101 69.248-69.248 9.771-23.552 9.771-47.744 9.771-91.648v-204.928c0-52.736 0-81.792-13.909-109.141-12.416-24.277-31.744-43.563-55.936-55.936-27.435-13.995-56.448-13.995-109.227-13.995zM511.573 362.667c-23.595 0-42.667 19.115-42.667 42.667v323.669l-55.168-55.168c-16.683-16.683-43.648-16.683-60.331 0s-16.683 43.648 0 60.331l128 128c4.139 4.096 8.832 7.211 13.909 9.301 4.949 2.048 10.411 3.2 16.128 3.2h0.256c5.717 0 11.179-1.152 16.128-3.2 5.077-2.091 9.771-5.205 13.909-9.301l128-128c16.683-16.683 16.683-43.648 0-60.331s-43.648-16.683-60.331 0l-55.168 55.168v-323.669c0-23.552-19.072-42.667-42.667-42.667z" />
<glyph unicode="&#xe944;" glyph-name="published1" d="M512 21.376c-235.264 0-426.667 191.403-426.667 426.667s191.445 426.667 426.667 426.667 426.667-191.403 426.667-426.667-191.403-426.667-426.667-426.667zM512 789.376c-188.203 0-341.333-153.131-341.333-341.333s153.131-341.333 341.333-341.333 341.333 153.131 341.333 341.333-153.131 341.333-341.333 341.333zM469.333 320.043c-10.923 0-21.845 4.181-30.165 12.501l-85.333 85.333c-16.683 16.683-16.683 43.648 0 60.331s43.648 16.683 60.331 0l55.168-55.168 140.501 140.501c16.683 16.683 43.648 16.683 60.331 0s16.683-43.648 0-60.331l-170.667-170.667c-8.32-8.32-19.243-12.501-30.165-12.501z" />
<glyph unicode="&#xe945;" glyph-name="Rows" d="M273.067 789.333s0 0 0 0h469.333s0 0 0 0c17.067 0 29.867 0 42.667 0 51.2-8.533 89.6-51.2 102.4-102.4 0-12.8 0-25.6 0-42.667v0-8.533c0-17.067 0-29.867 0-42.667-8.533-51.2-51.2-89.6-102.4-102.4-12.8 0-25.6 0-42.667 0h-469.333c-17.067 0-29.867 0-42.667 0-51.2 8.533-89.6 51.2-102.4 102.4 0 12.8 0 25.6 0 42.667 0 0 0 0 0 0s0 0 0 0c0 17.067 0 29.867 0 42.667 8.533 51.2 51.2 89.6 102.4 102.4 12.8 0 25.6 0 42.667 0zM277.333 704c-21.333 0-25.6 0-29.867 0-17.067 0-29.867-17.067-34.133-34.133 0 0 0-8.533 0-29.867s0-25.6 0-29.867c0-17.067 17.067-29.867 34.133-34.133 0 0 8.533 0 29.867 0h469.333c21.333 0 25.6 0 29.867 0 17.067 0 29.867 17.067 34.133 34.133 0 0 0 8.533 0 29.867s0 25.6 0 29.867c0 17.067-17.067 29.867-34.133 34.133 0 0-8.533 0-29.867 0h-469.333zM273.067 405.333s0 0 0 0h469.333s0 0 0 0c17.067 0 29.867 0 42.667 0 51.2-8.533 89.6-51.2 102.4-102.4 0-12.8 0-25.6 0-42.667v0-8.533c0-17.067 0-29.867 0-42.667-8.533-51.2-51.2-89.6-102.4-102.4-12.8 0-25.6 0-42.667 0h-469.333c-17.067 0-29.867 0-42.667 0-51.2 8.533-89.6 51.2-102.4 102.4 0 12.8 0 25.6 0 42.667 0 0 0 0 0 0s0 0 0 0c0 17.067 0 29.867 0 42.667 8.533 51.2 51.2 89.6 102.4 102.4 12.8 0 25.6 0 42.667 0zM277.333 320c-21.333 0-25.6 0-29.867 0-17.067 0-29.867-17.067-34.133-34.133 0 0 0-8.533 0-29.867s0-25.6 0-29.867c0-17.067 17.067-29.867 34.133-34.133 0 0 8.533 0 29.867 0h469.333c21.333 0 25.6 0 29.867 0 17.067 0 29.867 17.067 34.133 34.133 0 0 0 8.533 0 29.867s0 25.6 0 29.867c0 17.067-17.067 29.867-34.133 34.133 0 0-8.533 0-29.867 0h-469.333z" />
<glyph unicode="&#xe946;" glyph-name="search1" d="M426.667 64h-119.595c-52.779 0-81.835 0-109.184 13.952-24.235 12.416-43.563 31.744-55.936 55.936-13.952 27.435-13.952 56.533-13.952 109.355v409.557c0 52.821 0 81.92 13.952 109.312 12.373 24.235 31.701 43.605 55.936 55.979 27.392 13.952 56.491 13.952 109.312 13.952h409.6c52.779 0 81.877 0 109.269-13.952 24.277-12.373 43.648-31.744 55.979-55.936 13.952-27.349 13.952-56.405 13.952-109.184v-119.595c0-23.552-19.115-42.667-42.667-42.667s-42.667 19.115-42.667 42.667v119.595c0 36.949 0 61.355-4.651 70.443-4.096 8.064-10.581 14.507-18.688 18.645-9.088 4.651-33.536 4.651-70.528 4.651h-409.6c-37.035 0-61.483 0-70.613-4.651-8.064-4.096-14.507-10.581-18.645-18.645-4.651-9.088-4.651-33.579-4.651-70.571v-409.6c0-37.035 0-61.44 4.651-70.613 4.096-8.021 10.581-14.464 18.688-18.645 9.045-4.608 33.451-4.608 70.4-4.608h119.595c23.552 0 42.667-19.115 42.667-42.667s-19.115-42.667-42.667-42.667zM810.667 106.667c-10.923 0-21.845 4.181-30.165 12.501l-102.315 102.315c-29.611-18.688-64.64-29.483-102.187-29.483-105.856 0-192 86.144-192 192s86.144 192 192 192 192-86.144 192-192c0-37.504-10.795-72.576-29.483-102.187l102.315-102.315c16.683-16.683 16.683-43.648 0-60.331-8.32-8.32-19.243-12.501-30.165-12.501zM576 490.667c-58.795 0-106.667-47.872-106.667-106.667s47.872-106.667 106.667-106.667 106.667 47.872 106.667 106.667-47.872 106.667-106.667 106.667z" />
<glyph unicode="&#xe947;" glyph-name="search-21" d="M896 21.333c-10.923 0-21.845 4.181-30.165 12.501l-229.973 229.973c-57.813-44.971-130.475-71.808-209.195-71.808-188.203 0-341.333 153.131-341.333 341.333s153.131 341.333 341.333 341.333 341.333-153.131 341.333-341.333c0-78.763-26.795-151.381-71.808-209.195l229.973-229.973c16.683-16.683 16.683-43.648 0-60.331-8.32-8.32-19.243-12.501-30.165-12.501zM426.667 789.333c-141.184 0-256-114.816-256-256s114.816-256 256-256 256 114.816 256 256-114.816 256-256 256z" />
<glyph unicode="&#xe948;" glyph-name="security1" d="M512.043 27.861c-7.979 0-15.915 0.512-21.675 1.493-16.043 2.688-24.533 6.528-35.243 11.392-98.517 44.629-327.125 181.035-327.125 485.547v169.173c0 52.821 0 81.92 13.952 109.312 12.373 24.235 31.701 43.605 55.936 55.979 27.392 13.952 56.491 13.952 109.312 13.952h409.6c52.779 0 81.92 0 109.312-13.952 24.277-12.373 43.648-31.744 55.979-55.979 13.909-27.307 13.909-56.363 13.909-109.141v-169.301c0-304.512-228.608-440.917-326.912-485.461-10.709-4.821-19.499-8.747-35.456-11.477-5.717-0.981-13.653-1.493-21.589-1.493zM307.2 789.333c-37.035 0-61.483 0-70.613-4.651-8.064-4.096-14.507-10.581-18.645-18.645-4.651-9.088-4.651-33.579-4.651-70.571v-169.173c0-254.848 193.579-370.048 276.779-407.723 8.405-3.797 9.301-4.224 14.635-5.077 2.859-0.427 11.691-0.427 14.805 0 4.992 0.896 5.845 1.237 13.995 4.907 83.584 37.845 277.163 153.045 277.163 407.893v169.301c0 36.949 0 61.355-4.608 70.443-4.139 8.064-10.581 14.507-18.688 18.645-9.131 4.651-33.536 4.651-70.528 4.651h-409.643zM469.333 362.667c-10.923 0-21.845 4.181-30.165 12.501l-85.333 85.333c-16.683 16.683-16.683 43.648 0 60.331s43.648 16.683 60.331 0l55.168-55.168 140.501 140.501c16.683 16.683 43.648 16.683 60.331 0s16.683-43.648 0-60.331l-170.667-170.667c-8.32-8.32-19.243-12.501-30.165-12.501z" />
<glyph unicode="&#xe949;" glyph-name="settings1" d="M646.272 3.115c-9.472 0-18.901 1.024-28.117 3.072-20.224 4.565-36.565 14.379-63.744 30.72l-16.085 9.685c-8.661 4.907-15.317 6.784-22.144 6.997h-4.224s-4.309 0-4.309 0c-6.699-0.213-13.227-2.005-19.157-5.333l-18.731-11.179c-28.075-16.853-43.477-26.027-63.573-30.549-17.451-3.925-36.224-4.096-53.931-0.427-20.139 4.139-35.627 13.099-63.829 29.355l-21.205 12.203c-28.629 16.512-44.117 25.472-57.771 40.789-12.16 13.611-21.163 29.44-26.624 47.019-6.229 19.669-5.888 37.717-5.333 70.485l0.256 17.28s0 4.395 0 4.565c-0.085 6.699-1.792 13.312-4.821 19.072-0.171 0.213-2.219 3.883-2.389 4.139-0.085 0.128-2.048 3.541-2.133 3.669-3.541 5.717-8.448 10.581-14.251 14.080l-3.883 2.176-15.317 8.533c-27.477 15.275-44.075 24.491-58.027 39.637-12.373 13.397-21.547 29.013-27.349 46.421-6.571 19.712-6.613 38.699-6.656 70.144l-0.085 23.893c0 31.744-0.085 50.816 6.272 70.443 6.016 17.877 15.232 33.579 27.648 46.976 13.867 15.147 30.677 24.448 58.453 39.851l15.317 8.491c9.557 5.547 14.421 10.325 18.048 16.213 0.085 0.085 4.096 7.040 4.139 7.125 3.2 6.016 4.992 12.757 5.077 19.541l-0.384 22.229c-0.555 32.597-0.896 50.603 5.291 70.229 5.504 17.579 14.421 33.365 26.581 47.019 13.44 15.232 28.885 24.192 56.917 40.448l21.248 12.373c27.733 16.043 44.075 25.557 64.256 29.739 17.707 3.669 36.48 3.541 54.144-0.384 20.267-4.523 36.651-14.379 63.829-30.72l15.147-9.088c9.515-5.419 16.171-7.296 22.955-7.509h4.224c10.965 0.213 17.621 2.048 23.509 5.333l18.731 11.179c27.136 16.256 43.435 26.027 63.531 30.507 17.835 4.053 36.011 4.224 53.973 0.469 20.224-4.181 36.693-13.696 64.043-29.483l21.035-12.117c27.435-15.787 43.947-25.301 57.771-40.789 12.117-13.525 21.12-29.397 26.624-47.019 6.187-19.456 5.845-38.229 5.291-69.333l-0.299-18.901v-4.352c0.085-6.656 1.835-13.312 5.035-19.285 0-0.128 2.091-3.712 2.133-3.84 5.589-9.216 10.539-14.123 16.341-17.536l19.285-10.752c29.141-16.171 44.501-24.832 58.155-39.723 12.245-13.269 21.504-28.885 27.307-46.336 6.528-19.584 6.571-38.613 6.613-70.144l0.085-24.405c0-31.701 0.085-50.56-6.272-69.973-5.845-17.621-15.061-33.323-27.52-46.805-14.037-15.275-30.848-24.533-58.581-39.936l-19.669-10.923c-5.12-3.072-10.112-7.979-13.696-13.781 0 0-2.176-3.669-2.219-3.712-5.12-9.429-6.869-16.128-6.955-22.827l0.341-22.955c0.512-31.872 0.811-50.389-5.291-69.76-5.333-17.28-14.251-33.109-26.453-46.848-13.653-15.36-30.080-24.875-57.259-40.661l-21.12-12.288c-27.605-16-43.989-25.515-64.171-29.739-8.491-1.792-17.237-2.645-26.027-2.645zM511.957 138.88h6.827c20.437-0.725 40.576-6.272 58.325-16.213 0.427-0.213 4.736-2.731 5.163-2.987l16.043-9.643c19.797-11.861 31.744-19.072 38.485-20.565 5.973-1.323 12.16-1.365 18.048-0.128 6.656 1.408 18.603 8.277 38.315 19.712l21.547 12.501c19.797 11.52 31.744 18.432 36.309 23.552 4.053 4.523 6.997 9.771 8.789 15.573 2.005 6.4 1.792 19.712 1.451 41.771l-0.384 27.392c0.256 19.584 5.504 39.936 15.189 57.941l6.741 11.691c10.795 17.365 25.728 32.043 43.221 42.496l21.333 11.861c20.309 11.264 32.512 18.005 37.205 23.125 4.096 4.437 7.296 9.856 9.216 15.659 2.048 6.272 2.048 20.011 2.005 42.709l-0.085 24.832c0 22.997 0 36.821-2.219 43.349-1.963 5.888-5.035 11.093-9.131 15.488-4.651 5.12-16.768 11.819-36.779 22.955 0 0-0.128 0.043-0.171 0.043l-21.205 11.861c-17.707 10.624-32.597 25.216-43.307 42.496-0.299 0.427-2.56 4.224-2.773 4.693l-4.395 7.808c-9.387 17.408-14.635 37.717-14.891 58.069l0.299 24.875c0.427 23.296 0.64 36.821-1.323 43.136-1.877 6.016-4.864 11.264-8.875 15.744-4.693 5.291-17.451 12.587-36.693 23.68l-21.077 12.16c-19.925 11.52-31.915 18.432-38.656 19.84-6.016 1.237-11.989 1.195-18.005-0.128-6.741-1.536-18.645-8.619-38.272-20.437l-21.333-12.672c-17.579-9.771-37.675-15.317-57.941-16h-6.912s-6.869 0-6.869 0c-20.437 0.64-40.533 6.229-58.24 16.128-0.427 0.213-3.541 2.048-4.011 2.304l-17.152 10.325c-19.84 11.904-31.744 19.115-38.528 20.608-5.888 1.28-12.075 1.365-17.963 0.128-6.741-1.408-18.645-8.277-38.315-19.712l-21.419-12.459c-20.053-11.648-31.915-18.517-36.395-23.552-4.139-4.651-7.125-9.899-8.96-15.829-2.005-6.485-1.792-20.395-1.365-43.392l0.341-25.643c-0.299-19.669-5.547-39.979-15.189-57.941l-7.339-12.629c-10.24-16.469-25.173-31.147-42.667-41.557l-21.291-11.861c-20.267-11.221-32.469-17.963-37.12-23.040-4.224-4.565-7.339-9.856-9.344-15.872-2.048-6.315-2.048-20.352-2.005-43.52l0.085-23.893c0-24.149 0.171-36.992 2.261-43.349 2.005-5.888 5.035-11.136 9.131-15.573 4.651-5.035 16.811-11.776 36.821-22.912l21.675-12.117c17.408-10.496 32.256-25.131 42.88-42.368l7.381-12.843c9.259-17.493 14.379-37.419 14.72-57.557 0-1.451 0-3.541 0-7.723l-0.256-16.811c-0.427-23.168-0.64-37.12 1.408-43.648 1.835-5.931 4.821-11.179 8.875-15.744 4.565-5.12 16.555-12.032 36.352-23.467l21.419-12.331c20.053-11.563 32-18.475 38.656-19.84 5.973-1.28 12.075-1.195 17.963 0.128 6.784 1.493 18.645 8.619 38.229 20.395l21.419 12.715c17.621 9.771 37.675 15.36 57.899 16h6.912zM512 234.667c-117.632 0-213.333 95.701-213.333 213.333s95.701 213.333 213.333 213.333 213.333-95.701 213.333-213.333-95.701-213.333-213.333-213.333zM512 576c-70.571 0-128-57.429-128-128s57.429-128 128-128 128 57.429 128 128-57.429 128-128 128z" />
<glyph unicode="&#xe94a;" glyph-name="small-arrow-down1" d="M512 320c-10.923 0-21.845 4.181-30.165 12.501l-170.667 170.667c-16.683 16.683-16.683 43.648 0 60.331s43.648 16.683 60.331 0l140.501-140.501 140.501 140.501c16.683 16.683 43.648 16.683 60.331 0s16.683-43.648 0-60.331l-170.667-170.667c-8.32-8.32-19.243-12.501-30.165-12.501z" />
<glyph unicode="&#xe94b;" glyph-name="small-arrow-left1" d="M597.333 234.667c-10.923 0-21.845 4.181-30.165 12.501l-170.667 170.667c-16.683 16.683-16.683 43.648 0 60.331l170.667 170.667c16.683 16.683 43.648 16.683 60.331 0s16.683-43.648 0-60.331l-140.501-140.501 140.501-140.501c16.683-16.683 16.683-43.648 0-60.331-8.32-8.32-19.243-12.501-30.165-12.501z" />
<glyph unicode="&#xe94c;" glyph-name="small-arrow-right1" d="M426.667 234.667c-10.923 0-21.845 4.181-30.165 12.501-16.683 16.683-16.683 43.648 0 60.331l140.501 140.501-140.501 140.501c-16.683 16.683-16.683 43.648 0 60.331s43.648 16.683 60.331 0l170.667-170.667c16.683-16.683 16.683-43.648 0-60.331l-170.667-170.667c-8.32-8.32-19.243-12.501-30.165-12.501z" />
<glyph unicode="&#xe94d;" glyph-name="small-arrow-up1" d="M682.667 320c-10.923 0-21.845 4.181-30.165 12.501l-140.501 140.501-140.501-140.501c-16.683-16.683-43.648-16.683-60.331 0s-16.683 43.648 0 60.331l170.667 170.667c16.683 16.683 43.648 16.683 60.331 0l170.667-170.667c16.683-16.683 16.683-43.648 0-60.331-8.32-8.32-19.243-12.501-30.165-12.501z" />
<glyph unicode="&#xe94e;" glyph-name="Sort_Descending" d="M738.133 776.533c17.067 17.067 42.667 17.067 59.733 0l128-128c17.067-17.067 17.067-42.667 0-59.733s-42.667-17.067-59.733 0l-55.467 55.467v-238.933c0-25.6-17.067-42.667-42.667-42.667s-42.667 17.067-42.667 42.667v238.933l-55.467-55.467c-17.067-17.067-42.667-17.067-59.733 0s-17.067 42.667 0 59.733l128 128zM128 661.333c0 25.6 17.067 42.667 42.667 42.667h256c25.6 0 42.667-17.067 42.667-42.667s-17.067-42.667-42.667-42.667h-256c-25.6 0-42.667 17.067-42.667 42.667zM128 448c0 25.6 17.067 42.667 42.667 42.667h384c25.6 0 42.667-17.067 42.667-42.667s-17.067-42.667-42.667-42.667h-384c-25.6 0-42.667 17.067-42.667 42.667zM128 234.667c0 25.6 17.067 42.667 42.667 42.667h512c25.6 0 42.667-17.067 42.667-42.667s-17.067-42.667-42.667-42.667h-512c-25.6 0-42.667 17.067-42.667 42.667z" />
<glyph unicode="&#xe94f;" glyph-name="Star" d="M759.467 4.267c-8.533 0-21.333 0-29.867 8.533l-213.333 119.467-213.333-119.467c-21.333-12.8-46.933-12.8-68.267 0s-29.867 38.4-25.6 64l46.933 243.2-179.2 166.4c-17.067 17.067-25.6 42.667-17.067 68.267s29.867 42.667 55.467 42.667l243.2 29.867 102.4 221.867c8.533 21.333 34.133 38.4 59.733 38.4s46.933-12.8 59.733-38.4l102.4-221.867 243.2-29.867c25.6 0 46.933-21.333 51.2-42.667 8.533-25.6 0-51.2-17.067-68.267l-179.2-166.4 46.933-243.2c4.267-25.6-4.267-51.2-25.6-64-12.8-8.533-25.6-12.8-38.4-12.8zM512 217.6c12.8 0 21.333 0 29.867-8.533l183.467-102.4-42.667 209.067c-4.267 21.333 0 42.667 17.067 59.733l153.6 145.067-209.067 25.6c-21.333 0-42.667 17.067-51.2 38.4l-89.6 192-89.6-192c-8.533-21.333-29.867-34.133-51.2-38.4l-209.067-25.6 153.6-145.067c17.067-17.067 25.6-38.4 21.333-59.733l-42.667-209.067 183.467 102.4c8.533 4.267 21.333 8.533 29.867 8.533z" />
<glyph unicode="&#xe950;" glyph-name="Tag" d="M520.533 729.6c0 0-8.533 0-34.133 0l-153.6-12.8c-21.333 0-34.133 0-42.667-4.267-8.533 0-12.8 0-17.067 0-8.533 0-12.8-8.533-17.067-17.067 0 0 0-4.267 0-17.067 0-8.533 0-21.333-4.267-42.667v0s0 0 0 0l-12.8-153.6c0-25.6 0-29.867 0-34.133s0-8.533 4.267-12.8c0 0 4.267-8.533 25.6-25.6l221.867-221.867c17.067-17.067 29.867-29.867 38.4-34.133 8.533-8.533 12.8-8.533 17.067-8.533 8.533 0 17.067 0 25.6 0 0 0 8.533 0 17.067 8.533s21.333 17.067 38.4 38.4l170.667 170.667c17.067 17.067 29.867 29.867 38.4 38.4s8.533 12.8 8.533 17.067 0 17.067 0 25.6c0 0 0 8.533-8.533 17.067s-17.067 21.333-38.4 38.4l-221.867 221.867c-17.067 17.067-21.333 21.333-25.6 25.6-4.267 0-8.533 0-12.8 4.267zM482.133 814.933c21.333 0 38.4 0 55.467 0 12.8 0 29.867-8.533 42.667-17.067s25.6-21.333 42.667-34.133c0 0 0 0 0 0l221.867-221.867c17.067-17.067 29.867-29.867 38.4-42.667 12.8-12.8 21.333-25.6 25.6-42.667 8.533-25.6 8.533-55.467 0-81.067-4.267-17.067-17.067-29.867-25.6-42.667s-25.6-25.6-38.4-42.667l-170.667-170.667c-17.067-17.067-29.867-29.867-42.667-38.4-12.8-12.8-25.6-21.333-42.667-25.6-25.6-8.533-55.467-8.533-81.067 0-17.067 4.267-29.867 17.067-42.667 25.6s-25.6 25.6-42.667 38.4l-221.867 221.867s0 0 0 0c-12.8 12.8-25.6 25.6-34.133 42.667-8.533 12.8-12.8 25.6-17.067 42.667 0 17.067 0 34.133 0 51.2 0 0 0 0 0 0v0l12.8 157.867s0 0 0 0c0 17.067 0 34.133 4.267 46.933 0 12.8 4.267 29.867 12.8 42.667 12.8 21.333 29.867 38.4 51.2 51.2 12.8 8.533 29.867 12.8 42.667 12.8s29.867 0 51.2 4.267l157.867 12.8s0 0 0 0zM324.267 635.733c34.133 34.133 85.333 34.133 119.467 0s34.133-85.333 0-119.467c-34.133-34.133-85.333-34.133-119.467 0s-34.133 85.333 0 119.467z" />
<glyph unicode="&#xe951;" glyph-name="user1" d="M512 21.376c-91.051 0-175.531 28.672-244.907 77.44-1.621 0.981-3.2 2.133-4.693 3.371-107.179 77.568-177.024 203.691-177.024 345.813-0.043 235.307 191.36 426.709 426.624 426.709s426.667-191.403 426.667-426.667c0-142.123-69.845-268.245-177.024-345.813-1.493-1.237-3.072-2.389-4.693-3.371-69.376-48.811-153.856-77.44-244.907-77.44zM360.363 142.293c91.392-45.568 211.883-45.568 303.232 0-87.253 64-215.979 64-303.232 0zM512 277.376c83.371 0 163.627-30.677 225.664-85.248 70.912 62.635 115.669 154.112 115.669 255.915 0 188.203-153.131 341.333-341.333 341.333s-341.333-153.131-341.333-341.333c0-101.803 44.8-193.28 115.669-255.915 62.037 54.571 142.251 85.248 225.664 85.248zM512 320.043c-94.123 0-170.667 76.544-170.667 170.667s76.544 170.667 170.667 170.667 170.667-76.544 170.667-170.667-76.544-170.667-170.667-170.667zM512 576.043c-47.061 0-85.333-38.272-85.333-85.333s38.272-85.333 85.333-85.333 85.333 38.272 85.333 85.333-38.272 85.333-85.333 85.333z" />
<glyph unicode="&#xe952;" glyph-name="User_03" d="M512 746.667c-72.533 0-128-55.467-128-128s55.467-128 128-128 128 55.467 128 128-55.467 128-128 128zM298.667 618.667c0 119.467 93.867 213.333 213.333 213.333s213.333-93.867 213.333-213.333-93.867-213.333-213.333-213.333-213.333 93.867-213.333 213.333zM307.2 307.2c55.467 34.133 128 55.467 204.8 55.467s149.333-21.333 204.8-55.467c55.467-34.133 93.867-89.6 93.867-157.867s-17.067-42.667-42.667-42.667-42.667 17.067-42.667 42.667-17.067 59.733-55.467 85.333c-38.4 25.6-93.867 42.667-157.867 42.667s-119.467-17.067-157.867-42.667c-38.4-25.6-55.467-55.467-55.467-85.333s-17.067-42.667-42.667-42.667-42.667 17.067-42.667 42.667c0 64 38.4 119.467 93.867 157.867z" />
<glyph unicode="&#xe953;" glyph-name="User_Card_ID" d="M264.533 746.667h499.2c21.333 0 42.667 0 59.733 0s34.133-4.267 51.2-12.8c25.6-12.8 42.667-29.867 55.467-55.467 8.533-17.067 12.8-34.133 12.8-51.2s0-34.133 0-59.733v-243.2c0-21.333 0-42.667 0-59.733s-4.267-34.133-12.8-51.2c-12.8-25.6-29.867-42.667-55.467-55.467-17.067-8.533-34.133-12.8-51.2-12.8s-34.133 0-59.733 0h-507.733c-21.333 0-38.4 0-55.467 0s-29.867 4.267-46.933 12.8c-25.6 12.8-42.667 29.867-55.467 55.467-8.533 17.067-12.8 34.133-12.8 51.2s0 34.133 0 59.733v243.2c0 21.333 0 42.667 0 59.733s4.267 34.133 12.8 51.2c12.8 25.6 29.867 42.667 55.467 55.467 17.067 8.533 34.133 12.8 51.2 12.8s34.133 0 59.733 0zM213.333 661.333c-12.8 0-17.067 0-17.067 0-8.533 0-12.8-8.533-17.067-17.067 0 0 0-8.533 0-17.067 0-12.8 0-29.867 0-51.2v-238.933c0-25.6 0-38.4 0-51.2s0-17.067 0-17.067c0-8.533 8.533-12.8 17.067-17.067 0 0 4.267 0 17.067 0 0 0 8.533 0 12.8 0 8.533 21.333 25.6 38.4 46.933 51.2 29.867 21.333 72.533 34.133 115.2 34.133s81.067-12.8 115.2-34.133c21.333-12.8 38.4-29.867 46.933-51.2h213.333c25.6 0 38.4 0 51.2 0s17.067 0 17.067 0c8.533 0 12.8 8.533 17.067 17.067 0 0 0 4.267 0 17.067s0 29.867 0 51.2v238.933c0 25.6 0 38.4 0 51.2s0 17.067 0 17.067c0 8.533-8.533 12.8-17.067 17.067 0 0-8.533 0-17.067 0-12.8 0-29.867 0-51.2 0h-499.2c-25.6 0-38.4 0-51.2 0zM384 533.333c-25.6 0-42.667-17.067-42.667-42.667s17.067-42.667 42.667-42.667 42.667 17.067 42.667 42.667-17.067 42.667-42.667 42.667zM256 490.667c0 72.533 55.467 128 128 128s128-55.467 128-128-55.467-128-128-128-128 55.467-128 128zM597.333 490.667c0 25.6 17.067 42.667 42.667 42.667h128c25.6 0 42.667-17.067 42.667-42.667s-17.067-42.667-42.667-42.667h-128c-25.6 0-42.667 17.067-42.667 42.667zM554.667 362.667c0 25.6 17.067 42.667 42.667 42.667h170.667c25.6 0 42.667-17.067 42.667-42.667s-17.067-42.667-42.667-42.667h-170.667c-25.6 0-42.667 17.067-42.667 42.667z" />
<glyph unicode="&#xe954;" glyph-name="workflow1" d="M896 192h-217.344c-16.768 0-27.776 0-40.448 4.053-11.349 3.584-21.632 9.429-30.507 17.323-9.856 8.704-15.531 18.176-24.149 32.512l-216.235 360.363c-3.797 6.315-5.973 10.453-8.363 13.312-1.579-0.64-6.229-0.896-13.568-0.896h-217.387c-23.595 0-42.667 19.115-42.667 42.667s19.072 42.667 42.667 42.667h217.344c16.725 0 27.733 0 40.405-4.053 11.264-3.584 21.504-9.344 30.379-17.195 10.027-8.832 15.701-18.304 24.32-32.64l216.235-360.363c3.797-6.315 5.973-10.453 8.363-13.312 1.536 0.64 6.229 0.896 13.568 0.896h217.344c23.595 0 42.667-19.115 42.667-42.667s-19.072-42.667-42.667-42.667zM896 618.667h-256c-23.595 0-42.667 19.115-42.667 42.667s19.072 42.667 42.667 42.667h256c23.595 0 42.667-19.115 42.667-42.667s-19.072-42.667-42.667-42.667z" />
<glyph unicode="&#xe955;" glyph-name="Airplay" d="M264.533 789.333h499.2c21.333 0 42.667 0 59.733 0s34.133-4.267 51.2-12.8c25.6-12.8 42.667-29.867 55.467-55.467 8.533-17.067 12.8-34.133 12.8-51.2s0-34.133 0-59.733v-243.2c0-21.333 0-42.667 0-59.733s-4.267-34.133-12.8-51.2c-12.8-25.6-29.867-42.667-55.467-55.467-17.067-8.533-34.133-12.8-51.2-12.8s-34.133 0-59.733 0v0c-25.6 0-42.667 17.067-42.667 42.667s17.067 42.667 42.667 42.667v0c25.6 0 38.4 0 51.2 0s17.067 0 17.067 0c8.533 0 12.8 8.533 17.067 17.067 0 0 0 4.267 0 17.067s0 29.867 0 51.2v238.933c0 25.6 0 38.4 0 51.2s0 17.067 0 17.067c0 8.533-8.533 12.8-17.067 17.067 0 0-8.533 0-17.067 0-12.8 0-29.867 0-51.2 0h-499.2c-25.6 0-38.4 0-51.2 0s-17.067 0-17.067 0c-8.533 0-12.8-8.533-17.067-17.067 0 0 0-8.533 0-17.067 0-12.8 0-29.867 0-51.2v-238.933c0-25.6 0-38.4 0-51.2s0-17.067 0-17.067c0-8.533 8.533-12.8 17.067-17.067 0 0 4.267 0 17.067 0s29.867 0 51.2 0v0c25.6 0 42.667-17.067 42.667-42.667s-17.067-42.667-42.667-42.667v0c-21.333 0-42.667 0-59.733 0s-34.133 4.267-51.2 12.8c-25.6 12.8-42.667 29.867-55.467 55.467-8.533 17.067-12.8 34.133-12.8 51.2s0 34.133 0 59.733v243.2c0 21.333 0 42.667 0 59.733s4.267 34.133 12.8 51.2c12.8 25.6 29.867 42.667 55.467 55.467 17.067 8.533 34.133 12.8 51.2 12.8s34.133 0 59.733 0zM512 362.667c12.8 0 25.6-4.267 34.133-17.067l170.667-213.333c8.533-12.8 12.8-29.867 4.267-46.933-8.533-12.8-21.333-25.6-38.4-25.6h-341.333c-17.067 0-29.867 8.533-38.4 25.6-8.533 12.8-4.267 34.133 4.267 46.933l170.667 213.333c8.533 8.533 21.333 17.067 34.133 17.067zM430.933 149.333h162.133l-81.067 102.4-81.067-102.4z" />
<glyph unicode="&#xe956;" glyph-name="Arrow_Left_Right" d="M371.2 776.533c17.067-17.067 17.067-42.667 0-59.733l-55.467-55.467h494.933c25.6 0 42.667-17.067 42.667-42.667s-17.067-42.667-42.667-42.667h-494.933l55.467-55.467c17.067-17.067 17.067-42.667 0-59.733s-42.667-17.067-59.733 0l-128 128c-17.067 17.067-17.067 42.667 0 59.733l128 128c17.067 17.067 42.667 17.067 59.733 0zM652.8 435.2c17.067 17.067 42.667 17.067 59.733 0l128-128c17.067-17.067 17.067-42.667 0-59.733l-128-128c-17.067-17.067-42.667-17.067-59.733 0s-17.067 42.667 0 59.733l55.467 55.467h-494.933c-25.6 0-42.667 17.067-42.667 42.667s17.067 42.667 42.667 42.667h494.933l-55.467 55.467c-17.067 17.067-17.067 42.667 0 59.733z" />
<glyph unicode="&#xe957;" glyph-name="arrow-down1" d="M512 234.667c-10.923 0-21.845 4.181-30.165 12.501l-298.667 298.667c-16.683 16.683-16.683 43.648 0 60.331s43.648 16.683 60.331 0l268.501-268.501 268.501 268.501c16.683 16.683 43.648 16.683 60.331 0s16.683-43.648 0-60.331l-298.667-298.667c-8.32-8.32-19.243-12.501-30.165-12.501z" />
<glyph unicode="&#xe958;" glyph-name="arrow-left1" d="M639.573 106.667c-10.923 0-21.845 4.181-30.165 12.501l-298.667 298.667c-16.683 16.683-16.683 43.648 0 60.331l298.667 298.667c16.683 16.683 43.648 16.683 60.331 0s16.683-43.648 0-60.331l-268.501-268.501 268.501-268.501c16.683-16.683 16.683-43.648 0-60.331-8.32-8.32-19.243-12.501-30.165-12.501z" />
<glyph unicode="&#xe959;" glyph-name="arrow-right1" d="M383.573 106.667c-10.923 0-21.845 4.181-30.165 12.501-16.683 16.683-16.683 43.648 0 60.331l268.501 268.501-268.501 268.501c-16.683 16.683-16.683 43.648 0 60.331s43.648 16.683 60.331 0l298.667-298.667c16.683-16.683 16.683-43.648 0-60.331l-298.667-298.667c-8.32-8.32-19.243-12.501-30.165-12.501z" />
<glyph unicode="&#xe95a;" glyph-name="Arrows_Reload_01" d="M810.667 874.667c25.6 0 42.667-17.067 42.667-42.667v-213.333c0-25.6-17.067-42.667-42.667-42.667h-213.333c-25.6 0-42.667 17.067-42.667 42.667s17.067 42.667 42.667 42.667h123.733c-21.333 21.333-42.667 38.4-68.267 51.2-51.2 25.6-106.667 38.4-162.133 34.133-55.467 0-110.933-25.6-153.6-55.467-46.933-34.133-81.067-76.8-102.4-128-8.533-21.333-34.133-34.133-55.467-25.6s-34.133 34.133-25.6 55.467c25.6 68.267 72.533 123.733 128 166.4 59.733 42.667 128 68.267 200.533 72.533s145.067-8.533 204.8-42.667c29.867-12.8 55.467-34.133 76.8-51.2v98.133c0 25.6 17.067 42.667 42.667 42.667zM844.8 358.4c21.333-8.533 34.133-34.133 25.6-55.467-25.6-68.267-72.533-123.733-128-166.4-59.733-42.667-128-68.267-200.533-72.533s-145.067 8.533-204.8 42.667c-29.867 12.8-55.467 34.133-76.8 51.2v-98.133c0-25.6-17.067-42.667-42.667-42.667s-42.667 17.067-42.667 42.667v213.333c0 25.6 17.067 42.667 42.667 42.667h213.333c25.6 0 42.667-17.067 42.667-42.667s-17.067-42.667-42.667-42.667h-123.733c21.333-21.333 42.667-38.4 68.267-51.2 51.2-25.6 106.667-38.4 162.133-34.133 55.467 0 110.933 25.6 153.6 55.467 46.933 34.133 81.067 76.8 102.4 128 8.533 21.333 34.133 34.133 55.467 25.6z" />
<glyph unicode="&#xe95b;" glyph-name="arrow-up1" d="M810.667 234.667c-10.923 0-21.845 4.181-30.165 12.501l-268.501 268.501-268.501-268.501c-16.683-16.683-43.648-16.683-60.331 0s-16.683 43.648 0 60.331l298.667 298.667c16.683 16.683 43.648 16.683 60.331 0l298.667-298.667c16.683-16.683 16.683-43.648 0-60.331-8.32-8.32-19.243-12.501-30.165-12.501z" />
<glyph unicode="&#xe95c;" glyph-name="Bar_Top" d="M307.2 832h413.867c21.333 0 42.667 0 59.733 0s34.133-4.267 51.2-12.8c25.6-12.8 42.667-29.867 55.467-55.467 8.533-17.067 12.8-34.133 12.8-51.2s0-34.133 0-59.733v-413.867c0-21.333 0-42.667 0-59.733s-4.267-34.133-12.8-51.2c-12.8-25.6-29.867-42.667-55.467-55.467-17.067-8.533-34.133-12.8-51.2-12.8s-34.133 0-59.733 0h-413.867c-21.333 0-42.667 0-59.733 0s-34.133 4.267-51.2 12.8c-25.6 12.8-42.667 29.867-55.467 55.467-8.533 17.067-12.8 34.133-12.8 51.2s0 34.133 0 59.733v413.867c0 21.333 0 42.667 0 59.733s4.267 34.133 12.8 51.2c12.8 25.6 29.867 42.667 55.467 55.467 17.067 8.533 34.133 12.8 51.2 12.8s34.133 0 59.733 0zM256 746.667c-12.8 0-17.067 0-17.067 0-8.533 0-12.8-8.533-17.067-17.067 0 0 0-8.533 0-17.067 0-12.8 0-29.867 0-51.2v-34.133h597.333v34.133c0 25.6 0 38.4 0 51.2s0 17.067 0 17.067c0 8.533-8.533 12.8-17.067 17.067 0 0-8.533 0-17.067 0-12.8 0-29.867 0-51.2 0h-426.667c-25.6 0-38.4 0-51.2 0zM810.667 533.333h-597.333v-290.133c0-25.6 0-38.4 0-51.2s0-17.067 0-17.067c0-8.533 8.533-12.8 17.067-17.067 0 0 4.267 0 17.067 0s29.867 0 51.2 0h409.6c25.6 0 38.4 0 51.2 0s17.067 0 17.067 0c8.533 0 12.8 8.533 17.067 17.067 0 0 0 4.267 0 17.067s0 29.867 0 51.2v290.133z" />
</font>
</defs>
</svg>
